<?xml version="1.0" encoding="UTF-8" standalone="no"?><!DOCTYPE svg PUBLIC "-//W3C//DTD SVG 1.1//EN" "http://www.w3.org/Graphics/SVG/1.1/DTD/svg11.dtd"><svg width="100%" height="100%" viewBox="0 0 331 139" version="1.1" xmlns="http://www.w3.org/2000/svg" xmlns:xlink="http://www.w3.org/1999/xlink" xml:space="preserve" xmlns:serif="http://www.serif.com/" style="fill-rule:evenodd;clip-rule:evenodd;stroke-miterlimit:10;"><g><g><path d="M122.825,103.123c-0.246,1.135 -0.915,1.703 -2.007,1.703l-11.059,0c-0.902,0 -1.352,-0.383 -1.352,-1.149c-0,-0.085 0.027,-0.27 0.082,-0.554l11.551,-56.402c0.245,-1.135 0.901,-1.703 1.966,-1.703l11.018,0c0.437,0 0.792,0.085 1.065,0.256c0.273,0.17 0.505,0.454 0.697,0.851l14.541,32.692l6.594,-32.096c0.246,-1.135 0.901,-1.703 1.966,-1.703l11.06,0c0.928,0 1.392,0.397 1.392,1.192c0,0.114 -0.027,0.284 -0.082,0.511l-11.55,56.402c-0.246,1.135 -0.915,1.703 -2.008,1.703l-9.625,0c-0.819,0 -1.393,-0.369 -1.721,-1.107l-15.565,-34.565l-6.963,33.969Z" style="fill:#29a6df;fill-rule:nonzero;"/><path d="M212.611,103.123c-0.246,1.135 -0.915,1.703 -2.007,1.703l-39.159,0c-0.901,0 -1.351,-0.383 -1.351,-1.149c-0,-0.085 0.027,-0.27 0.082,-0.554l11.55,-56.402c0.11,-0.539 0.328,-0.958 0.656,-1.256c0.327,-0.298 0.764,-0.447 1.311,-0.447l38.543,0c0.902,0 1.352,0.412 1.352,1.235c0,0.198 -0.014,0.354 -0.041,0.468l-2.171,10.429c-0.109,0.539 -0.327,0.958 -0.655,1.256c-0.328,0.298 -0.765,0.447 -1.311,0.447l-25.436,-0l-1.926,9.322l19.539,0c0.901,0 1.351,0.412 1.351,1.235c0,0.198 -0.013,0.354 -0.041,0.468l-1.966,9.578c-0.109,0.539 -0.327,0.957 -0.655,1.255c-0.328,0.298 -0.765,0.447 -1.311,0.447l-19.538,0l-2.048,9.833l26.051,0c0.928,0 1.393,0.398 1.393,1.192c-0,0.114 -0.028,0.284 -0.082,0.511l-2.13,10.429Z" style="fill:#29a6df;fill-rule:nonzero;"/><path d="M233.828,103.634c-0.573,0.795 -1.31,1.192 -2.212,1.192l-13.68,0c-0.792,0 -1.188,-0.27 -1.188,-0.809c-0,-0.34 0.191,-0.752 0.573,-1.234l23.43,-28.436l-10.937,-27.286c-0.082,-0.255 -0.123,-0.496 -0.123,-0.723c0,-0.398 0.144,-0.717 0.43,-0.958c0.287,-0.241 0.69,-0.362 1.209,-0.362l13.844,0c0.874,0 1.434,0.397 1.68,1.192l5.366,16.644l11.96,-16.644c0.546,-0.795 1.27,-1.192 2.171,-1.192l13.968,0c0.409,0 0.716,0.078 0.921,0.234c0.205,0.156 0.307,0.362 0.307,0.618c0,0.34 -0.177,0.737 -0.532,1.191l-21.504,27.286l11.305,28.436c0.082,0.255 0.123,0.482 0.123,0.681c-0,0.397 -0.151,0.724 -0.451,0.979c-0.3,0.255 -0.71,0.383 -1.229,0.383l-13.763,0c-0.464,0 -0.832,-0.092 -1.105,-0.277c-0.274,-0.184 -0.478,-0.489 -0.615,-0.915l-6.226,-18.219l-13.722,18.219Z" style="fill:#29a6df;fill-rule:nonzero;"/><path d="M303.871,103.123c-0.246,1.135 -0.915,1.703 -2.007,1.703l-11.469,0c-0.901,0 -1.352,-0.383 -1.352,-1.149c0,-0.085 0.027,-0.27 0.082,-0.554l8.97,-43.845l-13.803,0c-0.901,0 -1.352,-0.411 -1.352,-1.234c0,-0.199 0.014,-0.355 0.041,-0.468l2.253,-10.855c0.109,-0.539 0.328,-0.958 0.655,-1.256c0.328,-0.298 0.765,-0.447 1.311,-0.447l42.394,0c0.901,0 1.352,0.412 1.352,1.235c-0,0.198 -0.014,0.354 -0.041,0.468l-2.253,10.855c-0.109,0.539 -0.328,0.957 -0.655,1.255c-0.328,0.298 -0.765,0.447 -1.311,0.447l-13.845,0l-8.97,43.845Z" style="fill:#29a6df;fill-rule:nonzero;"/></g><g id="logo.svg"><g><path d="M108.171,108.461c-2.516,4.03 -6.991,6.717 -12.082,6.717c-7.847,0 -14.231,-6.384 -14.231,-14.231c0,-7.846 6.384,-14.23 14.231,-14.23c3.434,-0 6.587,1.222 9.048,3.254c-1.184,5.813 -2.169,10.665 -2.717,13.383c-0.09,0.447 -0.103,0.989 -0.095,1.364c0.007,0.299 0.056,0.601 0.145,0.887c0.1,0.321 0.294,0.76 0.454,1.041c0.135,0.238 0.317,0.454 0.507,0.646c0.19,0.192 0.419,0.37 0.632,0.508c0.201,0.13 0.413,0.259 0.645,0.319c0.416,0.106 1.223,0.303 1.848,0.318c0.399,0.01 0.957,0.018 1.615,0.024Zm-2.53,-20.96c-3.644,-0.069 -6.586,-3.055 -6.587,-6.714c0,-3.703 3.013,-6.717 6.716,-6.717c0.888,-0 1.736,0.173 2.513,0.487c-0.908,4.438 -1.812,8.872 -2.642,12.944Zm5.142,-25.152c-1.231,1.381 -3.022,2.251 -5.013,2.251c-3.703,0 -6.716,-3.013 -6.716,-6.716c0,-3.703 3.013,-6.716 6.716,-6.716c2.959,-0 5.477,1.923 6.37,4.584c-0.423,2.053 -0.879,4.273 -1.357,6.597Zm1.87,-9.082c-0.088,-0.25 -0.135,-0.518 -0.135,-0.798c0,-0.632 0.242,-1.209 0.639,-1.641c-0.159,0.77 -0.328,1.585 -0.504,2.439Zm2.018,-8.982c-0.388,0.261 -0.855,0.414 -1.357,0.414c-1.341,0 -2.433,-1.092 -2.433,-2.433c0,-1.341 1.092,-2.432 2.433,-2.432c1.342,0 2.434,1.091 2.434,2.432c-0,0.148 -0.013,0.293 -0.039,0.433c-0.232,0.236 -0.499,0.53 -0.664,0.826c-0.118,0.214 -0.25,0.476 -0.374,0.76Zm-84.13,41.66c-9.202,-0 -16.688,-7.487 -16.688,-16.69c0,-9.202 7.486,-16.687 16.688,-16.687c9.202,-0 16.688,7.485 16.688,16.687c-0,9.203 -7.486,16.69 -16.688,16.69Zm-1.167,-38.359c-3.703,-0 -6.715,-3.013 -6.715,-6.716c-0,-3.703 3.012,-6.716 6.715,-6.716c3.704,0 6.716,3.013 6.716,6.716c0,3.703 -3.012,6.716 -6.716,6.716Zm10.693,-10.63c-3.703,0 -6.716,-3.013 -6.716,-6.716c0,-3.703 3.013,-6.715 6.716,-6.715c3.704,-0 6.716,3.012 6.716,6.715c-0,3.703 -3.012,6.716 -6.716,6.716Zm22.329,-22.866c3.704,0 6.716,3.013 6.716,6.715c0,3.704 -3.012,6.717 -6.716,6.717c-3.703,-0 -6.715,-3.013 -6.715,-6.717c-0,-3.702 3.012,-6.715 6.715,-6.715Zm13.461,19.973c-3.703,0 -6.716,-3.013 -6.716,-6.716c0,-3.703 3.013,-6.716 6.716,-6.716c3.703,-0 6.717,3.013 6.717,6.716c-0,3.703 -3.014,6.716 -6.717,6.716Zm6.001,3.5c0,-7.847 6.384,-14.231 14.231,-14.231c7.847,0 14.232,6.384 14.232,14.231c-0,7.848 -6.385,14.232 -14.232,14.232c-7.847,-0 -14.231,-6.384 -14.231,-14.232Zm-40.517,7.079c0,1.341 -1.091,2.432 -2.433,2.432c-1.342,-0 -2.433,-1.091 -2.433,-2.432c0,-1.342 1.091,-2.433 2.433,-2.433c1.342,-0 2.433,1.091 2.433,2.433Zm1.767,-2.135c-1.342,-0 -2.433,-1.092 -2.433,-2.433c-0,-1.342 1.091,-2.433 2.433,-2.433c1.341,-0 2.433,1.091 2.433,2.433c-0,1.341 -1.092,2.433 -2.433,2.433Zm7.878,-14.802c-1.343,-0 -2.433,-1.092 -2.433,-2.433c-0,-1.342 1.09,-2.433 2.433,-2.433c1.341,-0 2.432,1.091 2.432,2.433c-0,1.341 -1.091,2.433 -2.432,2.433Zm-4.719,-3.691c-1.341,0 -2.433,-1.09 -2.433,-2.433c0,-1.341 1.092,-2.432 2.433,-2.432c1.342,0 2.433,1.091 2.433,2.432c0,1.343 -1.091,2.433 -2.433,2.433Zm5.756,-7.255c1.342,0 2.433,1.091 2.433,2.432c0,1.343 -1.091,2.433 -2.433,2.433c-1.341,0 -2.433,-1.09 -2.433,-2.433c0,-1.341 1.092,-2.432 2.433,-2.432Zm19.782,1.846c-1.341,-0 -2.433,-1.091 -2.433,-2.433c-0,-1.341 1.092,-2.432 2.433,-2.432c1.341,-0 2.433,1.091 2.433,2.432c-0,1.342 -1.092,2.433 -2.433,2.433Zm5.976,0.643c-1.343,-0 -2.434,-1.091 -2.434,-2.432c-0,-1.343 1.091,-2.433 2.434,-2.433c1.341,-0 2.433,1.09 2.433,2.433c-0,1.341 -1.092,2.432 -2.433,2.432Zm5.944,1.447c-1.343,0 -2.434,-1.091 -2.434,-2.433c-0,-1.341 1.091,-2.433 2.434,-2.433c1.341,0 2.433,1.092 2.433,2.433c-0,1.342 -1.092,2.433 -2.433,2.433Zm5.785,2.044c-1.341,-0 -2.433,-1.091 -2.433,-2.432c0,-1.342 1.092,-2.433 2.433,-2.433c1.342,-0 2.433,1.091 2.433,2.433c0,1.341 -1.091,2.432 -2.433,2.432Zm18.702,25.159c-0,-1.342 1.091,-2.433 2.433,-2.433c1.341,-0 2.433,1.091 2.433,2.433c-0,1.341 -1.092,2.433 -2.433,2.433c-1.342,-0 -2.433,-1.092 -2.433,-2.433Zm-5.758,21.357c0,-1.341 1.092,-2.432 2.433,-2.432c1.341,0 2.433,1.091 2.433,2.432c0,1.342 -1.092,2.433 -2.433,2.433c-1.341,0 -2.433,-1.091 -2.433,-2.433Zm-61.407,-16.437c-1.342,0 -2.433,-1.09 -2.433,-2.432c0,-1.341 1.091,-2.433 2.433,-2.433c1.342,0 2.433,1.092 2.433,2.433c-0,1.342 -1.091,2.432 -2.433,2.432Zm3.942,4.614c-1.341,-0 -2.432,-1.092 -2.432,-2.433c-0,-1.342 1.091,-2.433 2.432,-2.433c1.341,-0 2.433,1.091 2.433,2.433c-0,1.341 -1.092,2.433 -2.433,2.433Zm-0,-14.049c1.341,-0 2.433,1.091 2.433,2.432c-0,1.341 -1.092,2.433 -2.433,2.433c-1.341,-0 -2.432,-1.092 -2.432,-2.433c-0,-1.341 1.091,-2.432 2.432,-2.432Zm-9.917,3.752c1.342,0 2.433,1.092 2.433,2.433c0,1.342 -1.091,2.433 -2.433,2.433c-1.341,0 -2.433,-1.091 -2.433,-2.433c0,-1.341 1.092,-2.433 2.433,-2.433Zm-16.575,8.213c-1.341,-0 -2.432,-1.091 -2.432,-2.432c-0,-1.342 1.091,-2.433 2.432,-2.433c1.342,-0 2.433,1.091 2.433,2.433c0,1.341 -1.091,2.432 -2.433,2.432Zm2.485,-5.464c-1.342,-0 -2.433,-1.092 -2.433,-2.433c0,-1.341 1.091,-2.433 2.433,-2.433c1.342,-0 2.432,1.092 2.432,2.433c0,1.341 -1.09,2.433 -2.432,2.433Zm15.108,47.917c0,3.703 -3.012,6.717 -6.716,6.717c-3.703,-0 -6.715,-3.014 -6.715,-6.717c-0,-3.704 3.012,-6.718 6.715,-6.718c3.704,0 6.716,3.014 6.716,6.718Zm10.693,10.63c-0,3.703 -3.012,6.717 -6.716,6.717c-3.703,0 -6.716,-3.014 -6.716,-6.717c0,-3.704 3.013,-6.717 6.716,-6.717c3.704,-0 6.716,3.013 6.716,6.717Zm15.614,2.718c3.703,0 6.715,3.014 6.715,6.717c0,3.703 -3.012,6.717 -6.715,6.717c-3.703,-0 -6.716,-3.014 -6.716,-6.717c-0,-3.703 3.013,-6.717 6.716,-6.717Zm13.46,-6.541c3.703,-0 6.717,3.013 6.717,6.715c-0,3.705 -3.014,6.717 -6.717,6.717c-3.703,0 -6.716,-3.012 -6.716,-6.717c0,-3.702 3.013,-6.715 6.716,-6.715Zm-36.948,-8.145c-1.342,-0 -2.433,-1.092 -2.433,-2.433c0,-1.341 1.091,-2.434 2.433,-2.434c1.341,0 2.432,1.093 2.432,2.434c0,1.341 -1.091,2.433 -2.432,2.433Zm4.199,4.567c-1.342,-0 -2.433,-1.092 -2.433,-2.432c-0,-1.342 1.091,-2.434 2.433,-2.434c1.341,-0 2.433,1.092 2.433,2.434c-0,1.34 -1.092,2.432 -2.433,2.432Zm10.31,12.369c-0,1.342 -1.091,2.433 -2.432,2.433c-1.343,0 -2.433,-1.091 -2.433,-2.433c-0,-1.341 1.09,-2.433 2.433,-2.433c1.341,-0 2.432,1.092 2.432,2.433Zm-7.151,1.257c1.342,0 2.433,1.092 2.433,2.433c0,1.342 -1.091,2.434 -2.433,2.434c-1.341,0 -2.433,-1.092 -2.433,-2.434c0,-1.341 1.092,-2.433 2.433,-2.433Zm5.756,2.389c1.342,0 2.433,1.093 2.433,2.435c0,1.342 -1.091,2.433 -2.433,2.433c-1.341,0 -2.433,-1.091 -2.433,-2.433c0,-1.342 1.092,-2.435 2.433,-2.435Zm19.782,3.02c1.341,-0 2.433,1.092 2.433,2.435c-0,1.341 -1.092,2.433 -2.433,2.433c-1.341,-0 -2.433,-1.092 -2.433,-2.433c-0,-1.343 1.092,-2.435 2.433,-2.435Zm5.976,-0.642c1.341,-0 2.433,1.092 2.433,2.434c-0,1.34 -1.092,2.432 -2.433,2.432c-1.343,-0 -2.434,-1.092 -2.434,-2.432c-0,-1.342 1.091,-2.434 2.434,-2.434Zm5.944,-1.447c1.341,0 2.433,1.091 2.433,2.433c-0,1.342 -1.092,2.433 -2.433,2.433c-1.343,0 -2.434,-1.091 -2.434,-2.433c-0,-1.342 1.091,-2.433 2.434,-2.433Zm5.785,-2.043c1.342,-0 2.434,1.091 2.434,2.432c0,1.341 -1.092,2.434 -2.434,2.434c-1.341,-0 -2.433,-1.093 -2.433,-2.434c0,-1.341 1.092,-2.432 2.433,-2.432Zm-48.463,-25.215c-1.342,-0 -2.433,-1.092 -2.433,-2.433c0,-1.342 1.091,-2.433 2.433,-2.433c1.342,-0 2.433,1.091 2.433,2.433c-0,1.341 -1.091,2.433 -2.433,2.433Zm3.942,-9.479c1.341,-0 2.433,1.092 2.433,2.433c-0,1.342 -1.092,2.432 -2.433,2.432c-1.341,0 -2.432,-1.09 -2.432,-2.432c-0,-1.341 1.091,-2.433 2.432,-2.433Zm2.433,11.616c-0,1.342 -1.092,2.433 -2.433,2.433c-1.341,0 -2.432,-1.091 -2.432,-2.433c-0,-1.341 1.091,-2.433 2.432,-2.433c1.341,0 2.433,1.092 2.433,2.433Zm-12.35,-6.185c1.342,-0 2.433,1.091 2.433,2.433c0,1.341 -1.091,2.433 -2.433,2.433c-1.341,-0 -2.433,-1.092 -2.433,-2.433c0,-1.342 1.092,-2.433 2.433,-2.433Zm-14.141,-0.915c0,1.342 -1.091,2.433 -2.433,2.433c-1.342,0 -2.433,-1.091 -2.433,-2.433c-0,-1.342 1.091,-2.433 2.433,-2.433c1.342,0 2.433,1.091 2.433,2.433Zm2.484,5.465c0,1.342 -1.09,2.433 -2.432,2.433c-1.342,0 -2.434,-1.091 -2.434,-2.433c0,-1.341 1.092,-2.433 2.434,-2.433c1.342,0 2.432,1.092 2.432,2.433Z" style="fill:none;stroke:#53b7db;stroke-opacity:0.25;stroke-width:2.5px;"/><g><path d="M110.196,108.473c-10.32,10.77 -24.847,17.475 -40.941,17.475c-31.312,0 -56.693,-25.381 -56.693,-56.693c0,-31.31 25.382,-56.693 56.693,-56.693c21.205,0 39.69,11.642 49.414,28.882c-0.513,0.061 -1.05,0.18 -1.371,0.255c-0.247,0.058 -0.476,0.182 -0.696,0.307c-0.226,0.128 -0.468,0.276 -0.661,0.464c-0.259,0.253 -0.672,0.652 -0.896,1.055c-0.277,0.501 -0.627,1.265 -0.771,1.948c-2.104,9.972 -9.862,48.007 -11.854,57.881c-0.09,0.447 -0.103,0.989 -0.095,1.364c0.007,0.299 0.056,0.601 0.145,0.887c0.1,0.321 0.294,0.76 0.454,1.041c0.135,0.238 0.317,0.454 0.507,0.646c0.19,0.192 0.419,0.37 0.632,0.508c0.201,0.13 0.413,0.259 0.645,0.319c0.416,0.106 1.223,0.303 1.848,0.318c0.766,0.019 2.12,0.031 3.64,0.036Z" style="fill:none;stroke:#26a7df;stroke-width:2.5px;"/><circle cx="60.609" cy="40.682" r="12.076" style="fill:none;stroke:#26a7df;stroke-width:2.5px;"/><circle cx="60.609" cy="97.83" r="12.076" style="fill:none;stroke:#26a7df;stroke-width:2.5px;"/><path d="M72.685,40.682l0,57.148" style="fill:none;fill-rule:nonzero;stroke:#26a7df;stroke-width:2.5px;"/><g><path d="M69.102,32.077l28.654,28.653l-17.079,17.079l-28.654,-28.654l17.079,-17.078Z" style="fill:none;stroke:#26a7df;stroke-width:2.5px;stroke-linecap:round;stroke-linejoin:round;"/></g><g><path d="M97.731,77.827l-28.654,28.654l-17.078,-17.079l28.654,-28.653l17.078,17.078Z" style="fill:none;stroke:#26a7df;stroke-width:2.5px;stroke-linecap:round;stroke-linejoin:round;"/></g><path d="M48.528,97.67l-0,-57.147" style="fill:none;fill-rule:nonzero;stroke:#26a7df;stroke-width:2.5px;"/><circle cx="89.183" cy="69.255" r="12.077" style="fill:none;stroke:#26a7df;stroke-width:2.5px;"/></g></g></g></g></svg>