<?xml version="1.0" encoding="UTF-8" standalone="no"?><!DOCTYPE svg PUBLIC "-//W3C//DTD SVG 1.1//EN" "http://www.w3.org/Graphics/SVG/1.1/DTD/svg11.dtd"><svg width="100%" height="100%" viewBox="0 0 1701 851" version="1.1" xmlns="http://www.w3.org/2000/svg" xmlns:xlink="http://www.w3.org/1999/xlink" xml:space="preserve" xmlns:serif="http://www.serif.com/" style="fill-rule:evenodd;clip-rule:evenodd;stroke-miterlimit:10;"><g><g><path d="M571.027,508.75c-1.051,4.853 -3.911,7.28 -8.581,7.28l-47.281,-0c-3.853,-0 -5.779,-1.638 -5.779,-4.914c0,-0.364 0.117,-1.153 0.35,-2.366l49.383,-241.132c1.05,-4.853 3.852,-7.28 8.405,-7.28l47.106,0c1.868,0 3.386,0.364 4.553,1.092c1.168,0.728 2.16,1.941 2.977,3.64l62.166,139.766l28.194,-137.218c1.05,-4.853 3.852,-7.28 8.405,-7.28l47.281,0c3.97,0 5.954,1.699 5.954,5.096c0,0.485 -0.116,1.213 -0.35,2.184l-49.382,241.132c-1.051,4.853 -3.911,7.28 -8.581,7.28l-41.152,-0c-3.502,-0 -5.954,-1.578 -7.355,-4.732l-66.544,-147.773l-29.769,145.225Z" style="fill:#29a6df;fill-rule:nonzero;"/><path d="M954.879,508.75c-1.05,4.853 -3.911,7.28 -8.58,7.28l-167.411,-0c-3.852,-0 -5.778,-1.638 -5.778,-4.914c-0,-0.364 0.116,-1.153 0.35,-2.366l49.382,-241.132c0.467,-2.306 1.401,-4.095 2.802,-5.369c1.401,-1.274 3.269,-1.911 5.604,-1.911l164.783,0c3.853,0 5.779,1.759 5.779,5.278c0,0.849 -0.058,1.516 -0.175,2.002l-9.281,44.586c-0.467,2.305 -1.401,4.095 -2.802,5.369c-1.401,1.274 -3.269,1.911 -5.604,1.911l-108.746,-0l-8.231,39.855l83.53,-0c3.853,-0 5.779,1.759 5.779,5.278c0,0.849 -0.058,1.516 -0.175,2.001l-8.405,40.947c-0.467,2.306 -1.401,4.095 -2.802,5.369c-1.401,1.274 -3.269,1.911 -5.604,1.911l-83.53,-0l-8.756,42.039l111.374,-0c3.969,-0 5.954,1.698 5.954,5.095c-0,0.486 -0.117,1.214 -0.351,2.184l-9.106,44.587Z" style="fill:#29a6df;fill-rule:nonzero;"/><path d="M1045.59,510.934c-2.452,3.397 -5.604,5.096 -9.456,5.096l-58.489,-0c-3.385,-0 -5.078,-1.153 -5.078,-3.458c-0,-1.456 0.817,-3.215 2.452,-5.278l100.165,-121.567l-46.755,-116.654c-0.351,-1.091 -0.526,-2.123 -0.526,-3.093c0,-1.699 0.613,-3.064 1.839,-4.095c1.226,-1.031 2.948,-1.547 5.166,-1.547l59.189,0c3.736,0 6.129,1.699 7.18,5.096l22.94,71.157l51.133,-71.157c2.335,-3.397 5.429,-5.096 9.282,-5.096l59.714,0c1.751,0 3.064,0.334 3.94,1.001c0.876,0.667 1.313,1.547 1.313,2.639c0,1.456 -0.759,3.154 -2.276,5.095l-91.936,116.654l48.332,121.567c0.35,1.092 0.525,2.063 0.525,2.912c0,1.699 -0.642,3.094 -1.926,4.186c-1.284,1.092 -3.035,1.638 -5.253,1.638l-58.839,-0c-1.985,-0 -3.561,-0.395 -4.728,-1.183c-1.168,-0.789 -2.043,-2.093 -2.627,-3.913l-26.617,-77.89l-58.664,77.89Z" style="fill:#29a6df;fill-rule:nonzero;"/><path d="M1345.04,508.75c-1.051,4.853 -3.911,7.28 -8.581,7.28l-49.032,-0c-3.852,-0 -5.779,-1.638 -5.779,-4.914c0,-0.364 0.117,-1.153 0.351,-2.366l38.35,-187.446l-59.014,-0c-3.853,-0 -5.779,-1.76 -5.779,-5.278c0,-0.849 0.059,-1.517 0.175,-2.002l9.632,-46.406c0.467,-2.306 1.401,-4.095 2.802,-5.369c1.4,-1.274 3.268,-1.911 5.603,-1.911l181.245,0c3.852,0 5.778,1.759 5.778,5.278c0,0.849 -0.058,1.516 -0.175,2.002l-9.631,46.406c-0.467,2.305 -1.401,4.095 -2.802,5.369c-1.401,1.274 -3.269,1.911 -5.604,1.911l-59.189,-0l-38.35,187.446Z" style="fill:#29a6df;fill-rule:nonzero;"/></g><g id="logo.svg"><g><path d="M508.377,531.57c-10.756,17.23 -29.889,28.718 -51.653,28.718c-33.546,-0 -60.84,-27.294 -60.84,-60.84c0,-33.546 27.292,-60.84 60.84,-60.84c14.679,-0 28.162,5.225 38.684,13.914c-5.061,24.851 -9.273,45.593 -11.616,57.213c-0.386,1.911 -0.442,4.23 -0.407,5.833c0.028,1.28 0.239,2.567 0.619,3.79c0.427,1.374 1.256,3.251 1.941,4.453c0.578,1.016 1.357,1.938 2.169,2.76c0.811,0.822 1.79,1.584 2.7,2.173c0.861,0.558 1.765,1.109 2.76,1.363c1.776,0.454 5.227,1.295 7.898,1.362c1.706,0.042 4.093,0.076 6.905,0.101Zm-10.818,-89.608c-15.575,-0.297 -28.156,-13.061 -28.158,-28.704c0,-15.833 12.881,-28.718 28.714,-28.718c3.795,0 7.421,0.741 10.74,2.085c-3.879,18.973 -7.748,37.926 -11.296,55.337Zm21.987,-107.53c-5.262,5.902 -12.92,9.624 -21.431,9.624c-15.833,0 -28.714,-12.881 -28.714,-28.713c0,-15.833 12.881,-28.714 28.714,-28.714c12.648,0 23.413,8.221 27.231,19.6c-1.808,8.774 -3.76,18.265 -5.8,28.203Zm7.991,-38.827c-0.373,-1.069 -0.575,-2.218 -0.575,-3.413c-0,-2.702 1.036,-5.167 2.732,-7.017c-0.682,3.292 -1.402,6.777 -2.157,10.43Zm8.631,-38.403c-1.659,1.118 -3.656,1.772 -5.803,1.772c-5.735,-0 -10.401,-4.667 -10.401,-10.402c-0,-5.734 4.666,-10.397 10.401,-10.397c5.739,-0 10.406,4.663 10.406,10.397c-0,0.632 -0.057,1.251 -0.166,1.853c-0.995,1.007 -2.135,2.264 -2.838,3.53c-0.508,0.914 -1.072,2.035 -1.599,3.247Zm-359.675,178.106c-39.341,0 -71.346,-32.007 -71.344,-71.351c0,-39.341 32.003,-71.344 71.344,-71.344c39.34,0 71.343,32.003 71.343,71.344c0,39.344 -32.003,71.351 -71.343,71.351Zm-4.989,-163.993c-15.83,0 -28.707,-12.88 -28.709,-28.713c0,-15.829 12.877,-28.709 28.709,-28.709c15.833,-0 28.714,12.88 28.714,28.709c-0,15.833 -12.881,28.713 -28.714,28.713Zm45.716,-45.444c-15.832,-0 -28.713,-12.881 -28.713,-28.713c-0,-15.829 12.881,-28.71 28.713,-28.71c15.833,0 28.71,12.881 28.71,28.71c-0,15.832 -12.877,28.713 -28.71,28.713Zm95.46,-97.757c15.833,-0 28.714,12.88 28.714,28.709c-0,15.833 -12.881,28.713 -28.714,28.713c-15.833,0 -28.709,-12.88 -28.709,-28.713c-0,-15.829 12.876,-28.709 28.709,-28.709Zm57.547,85.389c-15.829,0 -28.71,-12.88 -28.71,-28.713c0,-15.833 12.881,-28.713 28.71,-28.713c15.833,-0 28.717,12.88 28.717,28.713c0,15.833 -12.884,28.713 -28.717,28.713Zm25.657,14.963c0,-33.546 27.294,-60.84 60.84,-60.84c33.546,-0 60.844,27.292 60.844,60.84c0,33.55 -27.298,60.844 -60.844,60.844c-33.546,-0 -60.84,-27.292 -60.84,-60.844Zm-173.218,30.262c-0,5.735 -4.667,10.398 -10.402,10.398c-5.739,-0 -10.401,-4.663 -10.401,-10.398c-0,-5.734 4.662,-10.401 10.401,-10.401c5.735,-0 10.402,4.667 10.402,10.401Zm7.553,-9.128c-5.735,0 -10.402,-4.667 -10.402,-10.401c0,-5.735 4.667,-10.402 10.402,-10.402c5.734,0 10.401,4.667 10.401,10.402c0,5.734 -4.667,10.401 -10.401,10.401Zm33.679,-63.281c-5.738,-0 -10.401,-4.667 -10.401,-10.402c-0,-5.734 4.663,-10.401 10.401,-10.401c5.735,-0 10.398,4.667 10.398,10.401c-0,5.735 -4.663,10.402 -10.398,10.402Zm-20.172,-15.777c-5.735,0 -10.401,-4.663 -10.401,-10.401c-0,-5.735 4.666,-10.398 10.401,-10.398c5.735,0 10.402,4.663 10.402,10.398c-0,5.738 -4.667,10.401 -10.402,10.401Zm24.608,-31.017c5.734,0 10.401,4.663 10.401,10.398c0,5.738 -4.667,10.401 -10.401,10.401c-5.735,0 -10.402,-4.663 -10.402,-10.401c0,-5.735 4.667,-10.398 10.402,-10.398Zm84.571,7.891c-5.735,-0 -10.402,-4.663 -10.402,-10.402c0,-5.735 4.667,-10.397 10.402,-10.397c5.735,-0 10.401,4.662 10.401,10.397c0,5.739 -4.666,10.402 -10.401,10.402Zm25.548,2.748c-5.739,0 -10.406,-4.663 -10.406,-10.397c0,-5.739 4.667,-10.402 10.406,-10.402c5.734,0 10.401,4.663 10.401,10.402c0,5.734 -4.667,10.397 -10.401,10.397Zm25.411,6.188c-5.738,0 -10.405,-4.667 -10.405,-10.401c-0,-5.735 4.667,-10.402 10.405,-10.402c5.735,0 10.402,4.667 10.402,10.402c-0,5.734 -4.667,10.401 -10.402,10.401Zm24.736,8.737c-5.735,-0 -10.402,-4.663 -10.402,-10.398c0,-5.734 4.667,-10.401 10.402,-10.401c5.734,-0 10.401,4.667 10.401,10.401c0,5.735 -4.667,10.398 -10.401,10.398Zm79.952,107.56c0,-5.735 4.667,-10.402 10.402,-10.402c5.734,0 10.401,4.667 10.401,10.402c0,5.734 -4.667,10.401 -10.401,10.401c-5.735,0 -10.402,-4.667 -10.402,-10.401Zm-24.615,91.308c-0,-5.735 4.666,-10.398 10.401,-10.398c5.735,0 10.402,4.663 10.402,10.398c-0,5.734 -4.667,10.401 -10.402,10.401c-5.735,0 -10.401,-4.667 -10.401,-10.401Zm-262.527,-70.272c-5.739,0 -10.401,-4.662 -10.401,-10.397c-0,-5.735 4.662,-10.402 10.401,-10.402c5.735,0 10.398,4.667 10.398,10.402c-0,5.735 -4.663,10.397 -10.398,10.397Zm16.851,19.723c-5.735,0 -10.398,-4.666 -10.398,-10.401c0,-5.735 4.663,-10.402 10.398,-10.402c5.735,0 10.401,4.667 10.401,10.402c0,5.735 -4.666,10.401 -10.401,10.401Zm-0,-60.061c5.735,-0 10.401,4.663 10.401,10.397c0,5.735 -4.666,10.402 -10.401,10.402c-5.735,-0 -10.398,-4.667 -10.398,-10.402c0,-5.734 4.663,-10.397 10.398,-10.397Zm-42.397,16.042c5.735,0 10.402,4.667 10.402,10.402c-0,5.734 -4.667,10.401 -10.402,10.401c-5.734,0 -10.401,-4.667 -10.401,-10.401c-0,-5.735 4.667,-10.402 10.401,-10.402Zm-70.86,35.111c-5.735,-0 -10.401,-4.663 -10.401,-10.398c-0,-5.734 4.666,-10.401 10.401,-10.401c5.735,-0 10.402,4.667 10.402,10.401c-0,5.735 -4.667,10.398 -10.402,10.398Zm10.623,-23.36c-5.738,0 -10.401,-4.667 -10.401,-10.401c-0,-5.735 4.663,-10.402 10.401,-10.402c5.735,0 10.398,4.667 10.398,10.402c-0,5.734 -4.663,10.401 -10.398,10.401Zm64.591,204.854c-0,15.833 -12.881,28.718 -28.714,28.718c-15.832,-0 -28.709,-12.885 -28.709,-28.718c0,-15.833 12.877,-28.717 28.709,-28.717c15.833,-0 28.714,12.884 28.714,28.717Zm45.712,45.447c-0,15.83 -12.877,28.717 -28.71,28.717c-15.832,0 -28.713,-12.885 -28.713,-28.717c-0,-15.833 12.881,-28.718 28.713,-28.718c15.833,0 28.71,12.885 28.71,28.718Zm66.754,11.621c15.833,-0 28.71,12.884 28.71,28.717c-0,15.829 -12.877,28.714 -28.71,28.714c-15.833,-0 -28.713,-12.885 -28.713,-28.714c-0,-15.833 12.88,-28.717 28.713,-28.717Zm57.543,-27.965c15.833,-0 28.717,12.88 28.717,28.709c0,15.837 -12.884,28.718 -28.717,28.718c-15.829,-0 -28.71,-12.881 -28.71,-28.718c0,-15.829 12.881,-28.709 28.71,-28.709Zm-157.959,-34.821c-5.739,-0 -10.401,-4.667 -10.401,-10.402c-0,-5.735 4.662,-10.405 10.401,-10.405c5.735,-0 10.398,4.67 10.398,10.405c-0,5.735 -4.663,10.402 -10.398,10.402Zm17.951,19.523c-5.735,0 -10.402,-4.667 -10.402,-10.397c0,-5.735 4.667,-10.406 10.402,-10.406c5.734,0 10.401,4.671 10.401,10.406c0,5.73 -4.667,10.397 -10.401,10.397Zm44.077,52.884c-0,5.734 -4.663,10.401 -10.398,10.401c-5.738,0 -10.401,-4.667 -10.401,-10.401c-0,-5.735 4.663,-10.406 10.401,-10.406c5.735,0 10.398,4.671 10.398,10.406Zm-30.57,5.373c5.735,0 10.402,4.667 10.402,10.402c-0,5.734 -4.667,10.405 -10.402,10.405c-5.735,0 -10.401,-4.671 -10.401,-10.405c-0,-5.735 4.666,-10.402 10.401,-10.402Zm24.608,10.214c5.734,0 10.401,4.671 10.401,10.41c0,5.734 -4.667,10.401 -10.401,10.401c-5.735,0 -10.402,-4.667 -10.402,-10.401c0,-5.739 4.667,-10.41 10.402,-10.41Zm84.571,12.909c5.735,-0 10.401,4.668 10.401,10.409c0,5.735 -4.666,10.402 -10.401,10.402c-5.735,-0 -10.402,-4.667 -10.402,-10.402c0,-5.739 4.667,-10.409 10.402,-10.409Zm25.548,-2.745c5.734,0 10.401,4.669 10.401,10.406c0,5.73 -4.667,10.397 -10.401,10.397c-5.739,0 -10.406,-4.667 -10.406,-10.397c0,-5.735 4.667,-10.406 10.406,-10.406Zm25.411,-6.184c5.735,0 10.402,4.663 10.402,10.402c-0,5.734 -4.667,10.401 -10.402,10.401c-5.738,0 -10.405,-4.667 -10.405,-10.401c-0,-5.739 4.667,-10.402 10.405,-10.402Zm24.736,-8.737c5.734,0 10.405,4.667 10.405,10.398c0,5.735 -4.671,10.405 -10.405,10.405c-5.735,0 -10.402,-4.67 -10.402,-10.405c0,-5.731 4.667,-10.398 10.402,-10.398Zm-207.19,-107.799c-5.739,-0 -10.401,-4.667 -10.401,-10.402c-0,-5.734 4.662,-10.401 10.401,-10.401c5.735,-0 10.398,4.667 10.398,10.401c-0,5.735 -4.663,10.402 -10.398,10.402Zm16.851,-40.526c5.735,-0 10.401,4.671 10.401,10.405c0,5.735 -4.666,10.398 -10.401,10.398c-5.735,-0 -10.398,-4.663 -10.398,-10.398c0,-5.734 4.663,-10.405 10.398,-10.405Zm10.401,49.664c0,5.735 -4.666,10.401 -10.401,10.401c-5.735,0 -10.398,-4.666 -10.398,-10.401c0,-5.735 4.663,-10.402 10.398,-10.402c5.735,0 10.401,4.667 10.401,10.402Zm-52.798,-26.444c5.735,0 10.402,4.663 10.402,10.402c-0,5.734 -4.667,10.401 -10.402,10.401c-5.734,0 -10.401,-4.667 -10.401,-10.401c-0,-5.739 4.667,-10.402 10.401,-10.402Zm-60.454,-3.91c-0,5.734 -4.667,10.401 -10.402,10.401c-5.739,0 -10.405,-4.667 -10.405,-10.401c-0,-5.739 4.666,-10.402 10.405,-10.402c5.735,0 10.402,4.663 10.402,10.402Zm10.619,23.364c-0,5.734 -4.663,10.401 -10.398,10.401c-5.738,0 -10.405,-4.667 -10.405,-10.401c-0,-5.735 4.667,-10.402 10.405,-10.402c5.735,0 10.398,4.667 10.398,10.402Z" style="fill:none;stroke:#53b7db;stroke-opacity:0.25;stroke-width:4.99px;"/><g><path d="M517.034,531.619c-44.118,46.044 -106.226,74.712 -175.03,74.712c-133.866,0 -242.374,-108.51 -242.374,-242.374c0,-133.858 108.51,-242.374 242.374,-242.374c90.654,-0 169.684,49.77 211.256,123.476c-2.197,0.26 -4.49,0.769 -5.861,1.089c-1.057,0.247 -2.036,0.776 -2.978,1.312c-0.967,0.549 -2.001,1.182 -2.823,1.984c-1.109,1.083 -2.875,2.789 -3.831,4.511c-1.188,2.14 -2.683,5.409 -3.299,8.329c-8.996,42.63 -42.163,205.237 -50.676,247.451c-0.386,1.911 -0.442,4.23 -0.407,5.833c0.028,1.28 0.239,2.567 0.619,3.79c0.427,1.374 1.256,3.251 1.941,4.453c0.578,1.016 1.357,1.938 2.169,2.76c0.811,0.822 1.79,1.584 2.7,2.173c0.861,0.558 1.765,1.109 2.76,1.363c1.776,0.454 5.227,1.295 7.898,1.362c3.278,0.081 9.065,0.13 15.562,0.15Z" style="fill:none;stroke:#26a7df;stroke-width:4.99px;"/><circle cx="305.039" cy="241.8" r="51.628" style="fill:none;stroke:#26a7df;stroke-width:4.99px;"/><circle cx="305.039" cy="486.12" r="51.628" style="fill:none;stroke:#26a7df;stroke-width:4.99px;"/><path d="M356.667,241.8l0,244.32" style="fill:none;fill-rule:nonzero;stroke:#26a7df;stroke-width:4.99px;"/><g><path d="M341.35,205.01l122.501,122.501l-73.016,73.016l-122.501,-122.502l73.016,-73.015Z" style="fill:none;stroke:#26a7df;stroke-width:4.99px;stroke-linecap:round;stroke-linejoin:round;"/></g><g><path d="M463.744,400.604l-122.5,122.499l-73.014,-73.014l122.5,-122.499l73.014,73.014Z" style="fill:none;stroke:#26a7df;stroke-width:4.99px;stroke-linecap:round;stroke-linejoin:round;"/></g><path d="M253.39,485.437l-0,-244.316" style="fill:none;fill-rule:nonzero;stroke:#26a7df;stroke-width:4.99px;"/><circle cx="427.198" cy="363.957" r="51.63" style="fill:none;stroke:#26a7df;stroke-width:4.99px;"/></g></g></g></g></svg>