<?xml version="1.0" encoding="UTF-8" standalone="no"?><!DOCTYPE svg PUBLIC "-//W3C//DTD SVG 1.1//EN" "http://www.w3.org/Graphics/SVG/1.1/DTD/svg11.dtd"><svg width="100%" height="100%" viewBox="0 0 1402 535" version="1.1" xmlns="http://www.w3.org/2000/svg" xmlns:xlink="http://www.w3.org/1999/xlink" xml:space="preserve" xmlns:serif="http://www.serif.com/" style="fill-rule:evenodd;clip-rule:evenodd;stroke-miterlimit:10;"><g><g><path d="M483.56,416.002c-1.083,5.005 -4.033,7.507 -8.848,7.507l-48.755,-0c-3.973,-0 -5.959,-1.689 -5.959,-5.067c-0,-0.375 0.12,-1.189 0.361,-2.44l50.922,-248.651c1.084,-5.005 3.973,-7.507 8.668,-7.507l48.575,0c1.926,0 3.491,0.376 4.695,1.126c1.203,0.751 2.227,2.002 3.069,3.753l64.105,144.125l29.073,-141.497c1.083,-5.005 3.972,-7.507 8.667,-7.507l48.756,0c4.093,0 6.139,1.752 6.139,5.255c0,0.5 -0.12,1.251 -0.361,2.252l-50.922,248.651c-1.084,5.005 -4.033,7.507 -8.849,7.507l-42.435,-0c-3.611,-0 -6.139,-1.627 -7.584,-4.879l-68.619,-152.382l-30.698,149.754Z" style="fill:#29a6df;fill-rule:nonzero;"/><path d="M879.382,416.002c-1.083,5.005 -4.032,7.507 -8.848,7.507l-172.63,-0c-3.973,-0 -5.959,-1.689 -5.959,-5.067c-0,-0.375 0.12,-1.189 0.361,-2.44l50.922,-248.651c0.482,-2.377 1.445,-4.223 2.89,-5.536c1.444,-1.314 3.37,-1.971 5.778,-1.971l169.922,0c3.972,0 5.959,1.814 5.959,5.442c-0,0.876 -0.06,1.564 -0.181,2.065l-9.57,45.977c-0.482,2.377 -1.445,4.222 -2.89,5.536c-1.444,1.313 -3.37,1.97 -5.778,1.97l-112.138,0l-8.487,41.098l86.135,0c3.973,0 5.959,1.814 5.959,5.442c0,0.876 -0.06,1.564 -0.181,2.065l-8.667,42.223c-0.482,2.378 -1.445,4.223 -2.889,5.536c-1.445,1.314 -3.371,1.971 -5.779,1.971l-86.134,-0l-9.029,43.35l114.846,-0c4.093,-0 6.14,1.751 6.14,5.254c-0,0.501 -0.121,1.251 -0.362,2.252l-9.39,45.977Z" style="fill:#29a6df;fill-rule:nonzero;"/><path d="M972.921,418.254c-2.528,3.503 -5.779,5.255 -9.751,5.255l-60.313,-0c-3.491,-0 -5.236,-1.189 -5.236,-3.566c-0,-1.501 0.842,-3.315 2.528,-5.442l103.289,-125.358l-48.214,-120.291c-0.361,-1.126 -0.541,-2.189 -0.541,-3.19c-0,-1.752 0.632,-3.159 1.896,-4.223c1.264,-1.063 3.039,-1.595 5.327,-1.595l61.034,0c3.853,0 6.32,1.752 7.404,5.255l23.655,73.375l52.728,-73.375c2.408,-3.503 5.598,-5.255 9.571,-5.255l61.576,0c1.806,0 3.16,0.344 4.063,1.032c0.903,0.688 1.355,1.595 1.355,2.721c-0,1.502 -0.783,3.253 -2.348,5.255l-94.802,120.291l49.839,125.358c0.361,1.126 0.541,2.127 0.541,3.003c0,1.751 -0.662,3.19 -1.986,4.316c-1.324,1.126 -3.13,1.689 -5.417,1.689l-60.674,-0c-2.046,-0 -3.671,-0.407 -4.875,-1.22c-1.204,-0.813 -2.107,-2.158 -2.709,-4.035l-27.447,-80.319l-60.493,80.319Z" style="fill:#29a6df;fill-rule:nonzero;"/><path d="M1281.7,416.002c-1.083,5.005 -4.032,7.507 -8.848,7.507l-50.561,-0c-3.973,-0 -5.959,-1.689 -5.959,-5.067c-0,-0.375 0.12,-1.189 0.361,-2.44l39.546,-193.291l-60.854,-0c-3.973,-0 -5.959,-1.814 -5.959,-5.442c0,-0.876 0.06,-1.564 0.181,-2.065l9.931,-47.853c0.482,-2.377 1.445,-4.223 2.89,-5.536c1.444,-1.314 3.37,-1.971 5.778,-1.971l186.896,0c3.973,0 5.959,1.814 5.959,5.442c-0,0.876 -0.06,1.564 -0.181,2.065l-9.931,47.853c-0.482,2.377 -1.445,4.223 -2.889,5.536c-1.445,1.314 -3.371,1.971 -5.779,1.971l-61.035,-0l-39.546,193.291Z" style="fill:#29a6df;fill-rule:nonzero;"/></g><g id="logo.svg"><g><path d="M433.822,435.063c-10.756,17.23 -29.889,28.717 -51.653,28.717c-33.546,0 -60.84,-27.294 -60.84,-60.84c0,-33.545 27.292,-60.84 60.84,-60.84c14.679,0 28.162,5.226 38.684,13.914c-5.061,24.851 -9.273,45.594 -11.616,57.213c-0.386,1.912 -0.442,4.23 -0.407,5.834c0.029,1.279 0.239,2.567 0.619,3.79c0.427,1.373 1.256,3.251 1.941,4.453c0.578,1.016 1.358,1.938 2.169,2.76c0.811,0.821 1.79,1.584 2.7,2.173c0.861,0.557 1.765,1.108 2.76,1.363c1.776,0.454 5.227,1.295 7.898,1.361c1.706,0.043 4.093,0.076 6.905,0.102Zm-10.818,-89.609c-15.575,-0.297 -28.156,-13.06 -28.158,-28.704c0,-15.832 12.881,-28.717 28.714,-28.717c3.795,-0 7.421,0.74 10.74,2.084c-3.879,18.973 -7.747,37.927 -11.296,55.337Zm21.987,-107.529c-5.262,5.902 -12.92,9.624 -21.431,9.624c-15.833,-0 -28.714,-12.881 -28.714,-28.714c0,-15.832 12.881,-28.713 28.714,-28.713c12.648,-0 23.413,8.22 27.231,19.599c-1.808,8.775 -3.76,18.266 -5.8,28.204Zm7.991,-38.827c-0.372,-1.069 -0.575,-2.218 -0.575,-3.413c-0,-2.703 1.036,-5.167 2.732,-7.018c-0.682,3.293 -1.402,6.778 -2.157,10.431Zm8.631,-38.403c-1.659,1.118 -3.656,1.771 -5.803,1.771c-5.734,0 -10.401,-4.666 -10.401,-10.401c-0,-5.735 4.667,-10.398 10.401,-10.398c5.739,0 10.406,4.663 10.406,10.398c-0,0.632 -0.057,1.251 -0.166,1.852c-0.995,1.007 -2.135,2.265 -2.838,3.53c-0.508,0.915 -1.071,2.036 -1.599,3.248Zm-359.675,178.106c-39.341,-0 -71.346,-32.007 -71.344,-71.352c0,-39.34 32.003,-71.343 71.344,-71.343c39.34,0 71.343,32.003 71.343,71.343c0,39.345 -32.003,71.352 -71.343,71.352Zm-4.988,-163.993c-15.831,0 -28.708,-12.881 -28.71,-28.713c0,-15.829 12.877,-28.71 28.71,-28.71c15.832,0 28.713,12.881 28.713,28.71c-0,15.832 -12.881,28.713 -28.713,28.713Zm45.715,-45.444c-15.832,-0 -28.713,-12.881 -28.713,-28.714c0,-15.829 12.881,-28.709 28.713,-28.709c15.833,-0 28.71,12.88 28.71,28.709c-0,15.833 -12.877,28.714 -28.71,28.714Zm95.46,-97.758c15.833,0 28.714,12.881 28.714,28.71c-0,15.833 -12.881,28.713 -28.714,28.713c-15.832,0 -28.709,-12.88 -28.709,-28.713c-0,-15.829 12.877,-28.71 28.709,-28.71Zm57.547,85.39c-15.829,0 -28.71,-12.881 -28.71,-28.713c0,-15.833 12.881,-28.714 28.71,-28.714c15.833,0 28.717,12.881 28.717,28.714c0,15.832 -12.884,28.713 -28.717,28.713Zm25.657,14.963c0,-33.546 27.294,-60.84 60.84,-60.84c33.546,-0 60.844,27.292 60.844,60.84c0,33.549 -27.298,60.844 -60.844,60.844c-33.546,-0 -60.84,-27.293 -60.84,-60.844Zm-173.218,30.262c-0,5.735 -4.667,10.397 -10.402,10.397c-5.738,0 -10.401,-4.662 -10.401,-10.397c-0,-5.735 4.663,-10.402 10.401,-10.402c5.735,0 10.402,4.667 10.402,10.402Zm7.553,-9.128c-5.735,-0 -10.402,-4.667 -10.402,-10.402c0,-5.734 4.667,-10.401 10.402,-10.401c5.735,-0 10.401,4.667 10.401,10.401c0,5.735 -4.666,10.402 -10.401,10.402Zm33.679,-63.281c-5.738,-0 -10.401,-4.667 -10.401,-10.402c-0,-5.735 4.663,-10.401 10.401,-10.401c5.735,-0 10.398,4.666 10.398,10.401c-0,5.735 -4.663,10.402 -10.398,10.402Zm-20.172,-15.777c-5.734,-0 -10.401,-4.663 -10.401,-10.402c-0,-5.734 4.667,-10.397 10.401,-10.397c5.735,-0 10.402,4.663 10.402,10.397c-0,5.739 -4.667,10.402 -10.402,10.402Zm24.608,-31.017c5.734,-0 10.401,4.663 10.401,10.397c0,5.739 -4.667,10.402 -10.401,10.402c-5.735,-0 -10.402,-4.663 -10.402,-10.402c0,-5.734 4.667,-10.397 10.402,-10.397Zm84.571,7.89c-5.735,0 -10.401,-4.662 -10.401,-10.401c-0,-5.735 4.666,-10.398 10.401,-10.398c5.735,0 10.402,4.663 10.402,10.398c-0,5.739 -4.667,10.401 -10.402,10.401Zm25.548,2.749c-5.739,-0 -10.406,-4.663 -10.406,-10.398c0,-5.738 4.667,-10.401 10.406,-10.401c5.734,-0 10.401,4.663 10.401,10.401c0,5.735 -4.667,10.398 -10.401,10.398Zm25.412,6.188c-5.739,-0 -10.406,-4.667 -10.406,-10.402c0,-5.734 4.667,-10.401 10.406,-10.401c5.734,-0 10.401,4.667 10.401,10.401c0,5.735 -4.667,10.402 -10.401,10.402Zm24.735,8.737c-5.735,-0 -10.402,-4.663 -10.402,-10.398c0,-5.735 4.667,-10.401 10.402,-10.401c5.734,-0 10.401,4.666 10.401,10.401c0,5.735 -4.667,10.398 -10.401,10.398Zm79.952,107.559c0,-5.734 4.667,-10.401 10.402,-10.401c5.734,-0 10.401,4.667 10.401,10.401c0,5.735 -4.667,10.402 -10.401,10.402c-5.735,-0 -10.402,-4.667 -10.402,-10.402Zm-24.615,91.308c-0,-5.734 4.667,-10.397 10.401,-10.397c5.735,-0 10.402,4.663 10.402,10.397c-0,5.735 -4.667,10.402 -10.402,10.402c-5.734,-0 -10.401,-4.667 -10.401,-10.402Zm-262.527,-70.271c-5.738,0 -10.401,-4.663 -10.401,-10.397c-0,-5.735 4.663,-10.402 10.401,-10.402c5.735,0 10.398,4.667 10.398,10.402c-0,5.734 -4.663,10.397 -10.398,10.397Zm16.851,19.723c-5.735,0 -10.398,-4.667 -10.398,-10.401c0,-5.735 4.663,-10.402 10.398,-10.402c5.735,0 10.401,4.667 10.401,10.402c0,5.734 -4.666,10.401 -10.401,10.401Zm-0,-60.061c5.735,-0 10.401,4.662 10.401,10.397c0,5.735 -4.666,10.402 -10.401,10.402c-5.735,-0 -10.398,-4.667 -10.398,-10.402c0,-5.735 4.663,-10.397 10.398,-10.397Zm-42.396,16.042c5.734,-0 10.401,4.667 10.401,10.401c0,5.735 -4.667,10.402 -10.401,10.402c-5.735,-0 -10.402,-4.667 -10.402,-10.402c0,-5.734 4.667,-10.401 10.402,-10.401Zm-70.861,35.111c-5.734,-0 -10.401,-4.663 -10.401,-10.398c-0,-5.735 4.667,-10.401 10.401,-10.401c5.735,-0 10.402,4.666 10.402,10.401c-0,5.735 -4.667,10.398 -10.402,10.398Zm10.623,-23.36c-5.738,-0 -10.401,-4.667 -10.401,-10.402c-0,-5.734 4.663,-10.401 10.401,-10.401c5.735,-0 10.398,4.667 10.398,10.401c-0,5.735 -4.663,10.402 -10.398,10.402Zm64.591,204.854c-0,15.833 -12.881,28.717 -28.713,28.717c-15.833,0 -28.71,-12.884 -28.71,-28.717c0,-15.833 12.877,-28.717 28.71,-28.717c15.832,-0 28.713,12.884 28.713,28.717Zm45.712,45.446c-0,15.831 -12.877,28.718 -28.71,28.718c-15.832,-0 -28.713,-12.885 -28.713,-28.718c0,-15.832 12.881,-28.717 28.713,-28.717c15.833,-0 28.71,12.885 28.71,28.717Zm66.754,11.621c15.833,0 28.71,12.885 28.71,28.718c-0,15.829 -12.877,28.713 -28.71,28.713c-15.833,0 -28.713,-12.884 -28.713,-28.713c-0,-15.833 12.88,-28.718 28.713,-28.718Zm57.543,-27.964c15.833,-0 28.717,12.88 28.717,28.709c0,15.837 -12.884,28.717 -28.717,28.717c-15.829,0 -28.71,-12.88 -28.71,-28.717c0,-15.829 12.881,-28.709 28.71,-28.709Zm-157.959,-34.822c-5.738,0 -10.401,-4.667 -10.401,-10.401c-0,-5.735 4.663,-10.406 10.401,-10.406c5.735,0 10.398,4.671 10.398,10.406c-0,5.734 -4.663,10.401 -10.398,10.401Zm17.951,19.524c-5.735,-0 -10.402,-4.667 -10.402,-10.398c0,-5.734 4.667,-10.405 10.402,-10.405c5.735,-0 10.401,4.671 10.401,10.405c0,5.731 -4.666,10.398 -10.401,10.398Zm44.077,52.883c-0,5.735 -4.663,10.402 -10.398,10.402c-5.738,-0 -10.401,-4.667 -10.401,-10.402c-0,-5.734 4.663,-10.405 10.401,-10.405c5.735,-0 10.398,4.671 10.398,10.405Zm-30.57,5.374c5.735,-0 10.402,4.667 10.402,10.401c-0,5.735 -4.667,10.406 -10.402,10.406c-5.734,-0 -10.401,-4.671 -10.401,-10.406c-0,-5.734 4.667,-10.401 10.401,-10.401Zm24.608,10.214c5.734,-0 10.401,4.671 10.401,10.409c0,5.735 -4.667,10.402 -10.401,10.402c-5.735,-0 -10.402,-4.667 -10.402,-10.402c0,-5.738 4.667,-10.409 10.402,-10.409Zm84.571,12.908c5.735,0 10.402,4.669 10.402,10.41c-0,5.734 -4.667,10.401 -10.402,10.401c-5.735,0 -10.401,-4.667 -10.401,-10.401c-0,-5.739 4.666,-10.41 10.401,-10.41Zm25.548,-2.744c5.734,-0 10.401,4.669 10.401,10.405c0,5.731 -4.667,10.398 -10.401,10.398c-5.739,-0 -10.406,-4.667 -10.406,-10.398c0,-5.734 4.667,-10.405 10.406,-10.405Zm25.412,-6.184c5.734,-0 10.401,4.663 10.401,10.401c0,5.735 -4.667,10.402 -10.401,10.402c-5.739,-0 -10.406,-4.667 -10.406,-10.402c0,-5.738 4.667,-10.401 10.406,-10.401Zm24.735,-8.737c5.734,0 10.405,4.667 10.405,10.398c0,5.734 -4.671,10.405 -10.405,10.405c-5.735,0 -10.402,-4.671 -10.402,-10.405c0,-5.731 4.667,-10.398 10.402,-10.398Zm-207.19,-107.799c-5.738,-0 -10.401,-4.667 -10.401,-10.402c-0,-5.735 4.663,-10.401 10.401,-10.401c5.735,-0 10.398,4.666 10.398,10.401c-0,5.735 -4.663,10.402 -10.398,10.402Zm16.851,-40.526c5.735,-0 10.401,4.67 10.401,10.405c0,5.735 -4.666,10.398 -10.401,10.398c-5.735,-0 -10.398,-4.663 -10.398,-10.398c0,-5.735 4.663,-10.405 10.398,-10.405Zm10.401,49.664c0,5.734 -4.666,10.401 -10.401,10.401c-5.735,0 -10.398,-4.667 -10.398,-10.401c0,-5.735 4.663,-10.402 10.398,-10.402c5.735,0 10.401,4.667 10.401,10.402Zm-52.797,-26.444c5.734,-0 10.401,4.663 10.401,10.401c0,5.735 -4.667,10.402 -10.401,10.402c-5.735,-0 -10.402,-4.667 -10.402,-10.402c0,-5.738 4.667,-10.401 10.402,-10.401Zm-60.455,-3.911c-0,5.735 -4.667,10.402 -10.402,10.402c-5.738,-0 -10.405,-4.667 -10.405,-10.402c-0,-5.738 4.667,-10.401 10.405,-10.401c5.735,-0 10.402,4.663 10.402,10.401Zm10.619,23.364c-0,5.735 -4.663,10.402 -10.398,10.402c-5.738,-0 -10.405,-4.667 -10.405,-10.402c-0,-5.734 4.667,-10.401 10.405,-10.401c5.735,-0 10.398,4.667 10.398,10.401Z" style="fill:none;stroke:#53b7db;stroke-opacity:0.25;stroke-width:4.99px;"/><g><path d="M442.479,435.112c-44.118,46.044 -106.226,74.712 -175.03,74.712c-133.866,-0 -242.374,-108.51 -242.374,-242.375c0,-133.858 108.51,-242.374 242.374,-242.374c90.654,0 169.684,49.771 211.256,123.477c-2.196,0.259 -4.489,0.768 -5.861,1.089c-1.057,0.247 -2.036,0.776 -2.978,1.311c-0.967,0.55 -2.001,1.182 -2.823,1.985c-1.109,1.082 -2.875,2.788 -3.831,4.51c-1.188,2.14 -2.683,5.41 -3.299,8.33c-8.996,42.63 -42.162,205.236 -50.676,247.45c-0.386,1.912 -0.442,4.23 -0.407,5.834c0.029,1.279 0.239,2.567 0.619,3.79c0.427,1.373 1.256,3.251 1.941,4.453c0.578,1.016 1.358,1.938 2.169,2.76c0.811,0.821 1.79,1.584 2.7,2.173c0.861,0.557 1.765,1.108 2.76,1.363c1.776,0.454 5.227,1.295 7.898,1.361c3.278,0.082 9.065,0.131 15.562,0.151Z" style="fill:none;stroke:#26a7df;stroke-width:4.99px;"/><circle cx="230.484" cy="145.292" r="51.628" style="fill:none;stroke:#26a7df;stroke-width:4.99px;"/><circle cx="230.484" cy="389.613" r="51.628" style="fill:none;stroke:#26a7df;stroke-width:4.99px;"/><path d="M282.113,145.292l-0,244.321" style="fill:none;fill-rule:nonzero;stroke:#26a7df;stroke-width:4.99px;"/><g><path d="M266.795,108.503l122.501,122.501l-73.016,73.015l-122.501,-122.501l73.016,-73.015Z" style="fill:none;stroke:#26a7df;stroke-width:4.99px;stroke-linecap:round;stroke-linejoin:round;"/></g><g><path d="M389.189,304.096l-122.5,122.5l-73.014,-73.014l122.5,-122.5l73.014,73.014Z" style="fill:none;stroke:#26a7df;stroke-width:4.99px;stroke-linecap:round;stroke-linejoin:round;"/></g><path d="M178.835,388.93l-0,-244.316" style="fill:none;fill-rule:nonzero;stroke:#26a7df;stroke-width:4.99px;"/><circle cx="352.644" cy="267.449" r="51.63" style="fill:none;stroke:#26a7df;stroke-width:4.99px;"/></g></g></g></g></svg>