<?xml version="1.0" encoding="UTF-8" standalone="no"?>
<!DOCTYPE svg PUBLIC "-//W3C//DTD SVG 1.1//EN" "http://www.w3.org/Graphics/SVG/1.1/DTD/svg11.dtd">
<svg width="100%" height="100%" viewBox="0 0 1536 1182" version="1.1" xmlns="http://www.w3.org/2000/svg" xmlns:xlink="http://www.w3.org/1999/xlink" xml:space="preserve" xmlns:serif="http://www.serif.com/" style="fill-rule:evenodd;clip-rule:evenodd;stroke-miterlimit:10;">
    <g transform="matrix(0.998725,0,0,0.998725,9.66664,7.14191)">
        <g transform="matrix(4.61389,0,0,4.79493,-89.7124,-94.2956)">
            <g id="logo.svg">
                <g>
                    <path d="M230.685,201.499C230.425,200.879 230.281,200.199 230.281,199.487C230.281,196.614 232.619,194.276 235.492,194.276C238.367,194.276 240.705,196.614 240.705,199.487C240.705,200.199 240.561,200.879 240.301,201.499L230.685,201.499ZM168.85,202.567C171.892,188.948 184.076,178.737 198.599,178.737C212.74,178.737 224.664,188.417 228.091,201.499L223.804,201.499C222.553,201.499 221.58,201.907 220.829,202.564C220.124,203.18 219.603,204.018 219.368,205.134L212.755,236.206C211.396,236.921 209.978,237.537 208.509,238.044L215.253,206.352C215.364,205.893 215.394,205.54 215.394,205.305C215.394,205.266 215.392,205.226 215.389,205.187L215.349,204.718C215.342,204.627 215.325,204.536 215.3,204.449L215.163,203.962C215.133,203.857 215.091,203.756 215.038,203.661L214.778,203.191C214.721,203.088 214.65,202.992 214.569,202.906L214.196,202.51C214.124,202.434 214.045,202.366 213.958,202.308L213.61,202.072C213.541,202.026 213.468,201.985 213.392,201.951L213.029,201.789C212.995,201.774 212.959,201.76 212.924,201.747C212.499,201.597 211.987,201.499 211.38,201.499L202.062,201.499C200.853,201.499 199.901,201.882 199.157,202.502C198.454,203.088 197.898,203.925 197.635,205.096L193.852,222.812L185.139,203.966C184.695,203.079 184.106,202.49 183.473,202.11C182.864,201.745 182.088,201.499 181.114,201.499L171.831,201.499C170.622,201.499 169.67,201.882 168.926,202.502C168.9,202.523 168.875,202.545 168.85,202.567ZM158.83,245.38C157.69,245.672 156.495,245.827 155.265,245.827C147.335,245.827 140.882,239.374 140.882,231.44C140.882,223.51 147.335,217.057 155.265,217.057C158.636,217.057 161.74,218.222 164.195,220.171L158.83,245.38ZM164.324,255.666C163.627,257.724 161.677,259.21 159.386,259.21C156.511,259.21 154.173,256.872 154.173,254.001C154.173,251.583 155.83,249.542 158.069,248.957L157.658,250.888C157.555,251.402 157.533,251.74 157.533,251.894C157.533,251.934 157.535,251.974 157.538,252.013L157.577,252.476C157.585,252.567 157.602,252.658 157.627,252.746L157.764,253.227C157.794,253.332 157.836,253.434 157.889,253.529L158.148,253.994C158.206,254.097 158.277,254.193 158.359,254.279L158.729,254.67C158.829,254.774 158.943,254.863 159.07,254.934L159.772,255.324C159.843,255.363 159.916,255.396 159.992,255.422C160.41,255.569 160.915,255.666 161.512,255.666L164.324,255.666ZM176.224,247.696C176.915,248.58 177.328,249.693 177.328,250.901C177.328,253.774 174.99,256.112 172.117,256.112C171.366,256.112 170.652,255.953 170.007,255.666L170.83,255.666C172.043,255.666 172.996,255.287 173.739,254.681C174.462,254.091 175.027,253.248 175.292,252.069L176.224,247.696ZM179.478,232.937C179.447,232.912 179.416,232.886 179.384,232.861L179.403,232.775L179.478,232.937ZM187.746,250.604C186.856,251.312 185.731,251.735 184.509,251.735C181.636,251.735 179.298,249.395 179.298,246.522C179.298,244.014 181.082,241.912 183.449,241.421L187.746,250.604ZM58.207,177.084C38.498,177.084 22.464,161.049 22.465,141.338C22.465,121.629 38.498,105.596 58.207,105.596C77.916,105.596 93.949,121.629 93.949,141.338C93.949,161.049 77.916,177.084 58.207,177.084ZM55.708,94.926C47.777,94.926 41.326,88.473 41.325,80.541C41.325,72.611 47.776,66.158 55.708,66.158C63.64,66.158 70.093,72.611 70.093,80.541C70.093,88.473 63.64,94.926 55.708,94.926ZM78.611,72.159C70.679,72.159 64.226,65.706 64.226,57.774C64.226,49.844 70.679,43.391 78.611,43.391C86.543,43.391 92.994,49.844 92.994,57.774C92.994,65.706 86.543,72.159 78.611,72.159ZM126.435,23.184C134.367,23.184 140.82,29.637 140.82,37.567C140.82,45.499 134.367,51.952 126.435,51.952C118.503,51.952 112.052,45.499 112.052,37.567C112.052,29.637 118.503,23.184 126.435,23.184ZM155.265,65.963C147.335,65.963 140.882,59.51 140.882,51.578C140.882,43.646 147.335,37.193 155.265,37.193C163.197,37.193 169.652,43.646 169.652,51.578C169.652,59.51 163.197,65.963 155.265,65.963ZM233.72,116.983C233.72,124.915 227.267,131.368 219.335,131.368C211.403,131.368 204.95,124.915 204.95,116.983C204.95,109.051 211.403,102.598 219.335,102.598C227.267,102.598 233.72,109.051 233.72,116.983ZM256.796,141.338C256.796,149.27 250.343,155.725 242.413,155.725C234.479,155.725 228.026,149.27 228.026,141.338C228.026,133.406 234.479,126.953 242.413,126.953C250.343,126.953 256.796,133.406 256.796,141.338ZM89.152,85.924C92.025,85.924 94.363,88.26 94.363,91.133C94.363,94.006 92.025,96.344 89.152,96.344C86.279,96.344 83.943,94.006 83.943,91.133C83.943,88.26 86.279,85.924 89.152,85.924ZM37.734,99.848C34.859,99.848 32.523,97.51 32.523,94.637C32.523,91.764 34.859,89.426 37.734,89.426C40.607,89.426 42.943,91.764 42.943,94.637C42.943,97.51 40.607,99.848 37.734,99.848ZM70.093,202.477C70.093,210.409 63.64,216.864 55.708,216.864C47.776,216.864 41.325,210.409 41.325,202.477C41.325,194.545 47.776,188.09 55.708,188.09C63.64,188.09 70.093,194.545 70.093,202.477ZM238.998,100.176C241.871,100.176 244.209,102.512 244.209,105.385C244.209,108.258 241.871,110.596 238.998,110.596C236.125,110.596 233.787,108.258 233.787,105.385C233.787,102.512 236.125,100.176 238.998,100.176ZM146.587,32.854C143.714,32.854 141.376,30.518 141.376,27.643C141.376,24.77 143.714,22.434 146.587,22.434C149.46,22.434 151.798,24.77 151.798,27.643C151.798,30.518 149.46,32.854 146.587,32.854ZM244.48,98.918C241.605,98.918 239.269,96.583 239.269,93.709C239.269,90.834 241.605,88.498 244.48,88.498C247.353,88.498 249.691,90.834 249.691,93.709C249.691,96.582 247.353,98.918 244.48,98.918ZM184.509,41.708C181.636,41.708 179.298,39.372 179.298,36.499C179.298,33.626 181.636,31.288 184.509,31.288C187.382,31.288 189.72,33.626 189.72,36.499C189.72,39.372 187.382,41.708 184.509,41.708ZM159.386,34.231C156.511,34.231 154.173,31.895 154.173,29.022C154.173,26.147 156.511,23.811 159.386,23.811C162.259,23.811 164.597,26.147 164.597,29.022C164.597,31.895 162.259,34.231 159.386,34.231ZM212.232,141.338C212.232,138.465 214.57,136.129 217.443,136.129C220.316,136.129 222.654,138.465 222.654,141.338C222.654,144.211 220.316,146.549 217.443,146.549C214.57,146.549 212.232,144.211 212.232,141.338ZM89.152,116.014C86.279,116.014 83.943,113.676 83.943,110.803C83.943,107.93 86.279,105.592 89.152,105.592C92.025,105.592 94.363,107.93 94.363,110.803C94.363,113.676 92.025,116.014 89.152,116.014ZM92.994,225.245C92.994,233.176 86.543,239.632 78.611,239.632C70.679,239.632 64.226,233.177 64.226,225.245C64.226,217.313 70.679,210.858 78.611,210.858C86.543,210.858 92.994,217.313 92.994,225.245ZM126.437,231.067C134.369,231.067 140.82,237.522 140.82,245.454C140.82,253.384 134.369,259.839 126.437,259.839C118.505,259.839 112.052,253.384 112.052,245.454C112.052,237.522 118.505,231.067 126.437,231.067ZM101.996,52.344C99.121,52.344 96.785,50.006 96.785,47.133C96.785,44.26 99.121,41.922 101.996,41.922C104.869,41.922 107.205,44.26 107.205,47.133C107.205,50.006 104.869,52.344 101.996,52.344ZM67.912,93.961C70.785,93.961 73.123,96.299 73.123,99.172C73.123,102.045 70.785,104.383 67.912,104.383C65.039,104.383 62.701,102.045 62.701,99.172C62.701,96.299 65.039,93.961 67.912,93.961ZM236.32,119.141C236.32,116.268 238.658,113.932 241.533,113.932C244.406,113.932 246.744,116.268 246.744,119.141C246.744,122.016 244.406,124.354 241.533,124.354C238.658,124.354 236.32,122.016 236.32,119.141ZM219.335,180.42C211.404,180.42 204.951,173.967 204.95,166.037C204.95,158.105 211.403,151.65 219.335,151.65C227.267,151.65 233.72,158.105 233.72,166.037C233.72,173.967 227.267,180.42 219.335,180.42ZM168.119,73.459C168.119,56.653 181.793,42.979 198.599,42.979C215.405,42.979 229.081,56.652 229.081,73.459C229.081,90.267 215.405,103.941 198.599,103.941C181.793,103.941 168.119,90.268 168.119,73.459ZM81.339,88.62C81.339,91.493 79.001,93.829 76.128,93.829C73.253,93.829 70.917,91.493 70.917,88.62C70.917,85.747 73.253,83.409 76.128,83.409C79.001,83.409 81.339,85.747 81.339,88.62ZM85.123,84.047C82.25,84.047 79.912,81.709 79.912,78.836C79.912,75.963 82.25,73.625 85.123,73.625C87.996,73.625 90.334,75.963 90.334,78.836C90.334,81.709 87.996,84.047 85.123,84.047ZM91.89,44.44C89.017,44.44 86.679,42.104 86.679,39.229C86.679,36.356 89.017,34.02 91.89,34.02C94.763,34.02 97.101,36.356 97.101,39.229C97.101,42.104 94.763,44.44 91.89,44.44ZM104.218,28.901C107.091,28.901 109.429,31.237 109.429,34.11C109.429,36.985 107.091,39.321 104.218,39.321C101.345,39.321 99.007,36.985 99.007,34.11C99.007,31.237 101.345,28.901 104.218,28.901ZM172.117,37.331C169.242,37.331 166.904,34.993 166.904,32.12C166.904,29.247 169.242,26.909 172.117,26.909C174.99,26.909 177.328,29.247 177.328,32.12C177.328,34.993 174.99,37.331 172.117,37.331ZM235.492,88.743C232.619,88.743 230.281,86.405 230.281,83.532C230.281,80.659 232.619,78.323 235.492,78.323C238.367,78.323 240.705,80.659 240.705,83.532C240.705,86.405 238.367,88.743 235.492,88.743ZM224.564,95.594C224.564,92.721 226.902,90.383 229.775,90.383C232.648,90.383 234.986,92.721 234.986,95.594C234.986,98.467 232.648,100.805 229.775,100.805C226.902,100.805 224.564,98.467 224.564,95.594ZM80.71,106.133C77.835,106.133 75.499,103.797 75.499,100.924C75.499,98.051 77.835,95.713 80.71,95.713C83.583,95.713 85.919,98.051 85.919,100.924C85.919,103.797 83.583,106.133 80.71,106.133ZM245.779,110.471C245.779,107.598 248.117,105.262 250.99,105.262C253.865,105.262 256.203,107.598 256.203,110.471C256.203,113.346 253.865,115.682 250.99,115.682C248.117,115.682 245.779,113.346 245.779,110.471ZM32.412,111.551C29.539,111.551 27.201,109.215 27.201,106.342C27.201,103.469 29.539,101.131 32.412,101.131C35.285,101.131 37.623,103.469 37.623,106.342C37.623,109.215 35.285,111.551 32.412,111.551ZM146.587,250.163C149.46,250.163 151.798,252.502 151.798,255.378C151.798,258.251 149.46,260.589 146.587,260.589C143.714,260.589 141.376,258.251 141.376,255.378C141.376,252.503 143.714,250.163 146.587,250.163ZM244.48,184.1C247.353,184.1 249.691,186.438 249.691,189.311C249.691,192.184 247.353,194.524 244.48,194.524C241.605,194.524 239.269,192.184 239.269,189.311C239.269,186.438 241.605,184.1 244.48,184.1ZM250.99,167.336C253.865,167.336 256.203,169.674 256.203,172.549C256.203,175.422 253.865,177.76 250.99,177.76C248.117,177.76 245.779,175.422 245.779,172.549C245.779,169.674 248.117,167.336 250.99,167.336ZM67.912,178.637C70.785,178.637 73.123,180.973 73.123,183.848C73.123,186.721 70.785,189.059 67.912,189.059C65.039,189.059 62.701,186.721 62.701,183.848C62.701,180.973 65.039,178.637 67.912,178.637ZM233.787,177.635C233.787,174.762 236.125,172.422 238.998,172.422C241.871,172.422 244.209,174.762 244.209,177.635C244.209,180.508 241.871,182.846 238.998,182.846C236.125,182.846 233.787,180.508 233.787,177.635ZM42.945,188.383C42.945,191.256 40.609,193.594 37.736,193.594C34.861,193.594 32.523,191.256 32.523,188.383C32.523,185.51 34.861,183.172 37.736,183.172C40.609,183.172 42.945,185.51 42.945,188.383ZM104.218,243.696C107.091,243.696 109.429,246.036 109.429,248.911C109.429,251.784 107.091,254.122 104.218,254.122C101.345,254.122 99.007,251.784 99.007,248.911C99.007,246.036 101.345,243.696 104.218,243.696ZM94.363,191.885C94.363,194.758 92.025,197.096 89.152,197.096C86.279,197.096 83.943,194.758 83.943,191.885C83.943,189.012 86.279,186.674 89.152,186.674C92.025,186.674 94.363,189.012 94.363,191.885ZM80.71,187.307C77.835,187.307 75.499,184.969 75.499,182.096C75.499,179.223 77.835,176.885 80.71,176.885C83.583,176.885 85.919,179.223 85.919,182.096C85.919,184.969 83.583,187.307 80.71,187.307ZM107.205,235.887C107.205,238.76 104.869,241.098 101.996,241.098C99.121,241.098 96.785,238.76 96.785,235.887C96.785,233.014 99.121,230.674 101.996,230.674C104.869,230.674 107.205,233.014 107.205,235.887ZM76.13,199.612C73.255,199.612 70.919,197.274 70.919,194.401C70.919,191.528 73.255,189.188 76.13,189.188C79.003,189.188 81.339,191.528 81.339,194.401C81.339,197.274 79.003,199.612 76.13,199.612ZM246.744,163.877C246.744,166.75 244.406,169.088 241.533,169.088C238.658,169.088 236.32,166.75 236.32,163.877C236.32,161.004 238.658,158.666 241.533,158.666C244.406,158.666 246.744,161.004 246.744,163.877ZM37.625,176.678C37.625,179.551 35.287,181.889 32.414,181.889C29.539,181.889 27.201,179.551 27.201,176.678C27.201,173.803 29.539,171.467 32.414,171.467C35.287,171.467 37.625,173.803 37.625,176.678ZM85.123,209.393C82.25,209.393 79.912,207.055 79.912,204.184C79.912,201.311 82.25,198.971 85.123,198.971C87.996,198.971 90.334,201.311 90.334,204.184C90.334,207.055 87.996,209.393 85.123,209.393ZM91.89,238.579C94.763,238.579 97.101,240.917 97.101,243.79C97.101,246.663 94.763,249.003 91.89,249.003C89.017,249.003 86.679,246.663 86.679,243.79C86.679,240.917 89.017,238.579 91.89,238.579ZM89.152,167.004C92.025,167.004 94.363,169.344 94.363,172.217C94.363,175.09 92.025,177.426 89.152,177.426C86.279,177.426 83.943,175.09 83.943,172.217C83.943,169.344 86.279,167.004 89.152,167.004ZM234.986,187.426C234.986,190.299 232.648,192.637 229.775,192.637C226.902,192.637 224.564,190.299 224.564,187.426C224.564,184.553 226.902,182.215 229.775,182.215C232.648,182.215 234.986,184.553 234.986,187.426Z" style="fill:none;stroke:rgb(83,183,219);stroke-opacity:0.25;stroke-width:2.5px;"/>
                    <g>
                        <path d="M188.875,253.016C174.219,259.29 158.078,262.764 141.126,262.764C74.061,262.764 19.7,208.402 19.7,141.338C19.7,74.277 74.062,19.912 141.126,19.912C208.187,19.912 262.552,74.277 262.552,141.338C262.552,163.228 256.76,183.764 246.626,201.499L223.804,201.499C222.553,201.499 221.58,201.907 220.829,202.564C220.124,203.18 219.603,204.018 219.368,205.134L211.951,239.981C210.471,241.045 208.966,242.077 207.437,243.076L215.253,206.352C215.364,205.893 215.394,205.54 215.394,205.305C215.394,205.266 215.392,205.226 215.389,205.187L215.349,204.718C215.342,204.627 215.325,204.536 215.3,204.449L215.163,203.962C215.133,203.857 215.091,203.756 215.038,203.661L214.778,203.191C214.721,203.088 214.65,202.992 214.569,202.906L214.196,202.51C214.124,202.434 214.045,202.366 213.958,202.308L213.61,202.072C213.541,202.026 213.468,201.985 213.392,201.951L213.029,201.789C212.995,201.774 212.959,201.76 212.924,201.747C212.499,201.597 211.987,201.499 211.38,201.499L202.062,201.499C200.853,201.499 199.901,201.882 199.157,202.502C198.454,203.088 197.898,203.925 197.635,205.096L193.852,222.812L185.139,203.966C184.695,203.079 184.106,202.49 183.473,202.11C182.864,201.745 182.088,201.499 181.114,201.499L171.831,201.499C170.622,201.499 169.67,201.882 168.926,202.502C168.223,203.088 167.667,203.925 167.404,205.096L157.658,250.888C157.555,251.402 157.533,251.74 157.533,251.894C157.533,251.934 157.535,251.974 157.538,252.013L157.577,252.476C157.585,252.567 157.602,252.658 157.627,252.746L157.764,253.227C157.794,253.332 157.836,253.434 157.889,253.529L158.148,253.994C158.206,254.097 158.277,254.193 158.359,254.279L158.729,254.67C158.829,254.774 158.943,254.863 159.07,254.934L159.772,255.324C159.843,255.363 159.916,255.396 159.992,255.422C160.41,255.569 160.915,255.666 161.512,255.666L170.83,255.666C172.043,255.666 172.996,255.287 173.739,254.681C174.462,254.091 175.027,253.248 175.292,252.069L179.403,232.775L188.875,253.016Z" style="fill:none;stroke:rgb(38,167,223);stroke-width:2.5px;"/>
                        <circle cx="122.607" cy="80.139" r="25.865" style="fill:none;stroke:rgb(38,167,223);stroke-width:2.5px;"/>
                        <circle cx="122.607" cy="202.54" r="25.865" style="fill:none;stroke:rgb(38,167,223);stroke-width:2.5px;"/>
                        <path d="M148.472,80.139L148.472,202.54" style="fill:none;fill-rule:nonzero;stroke:rgb(38,167,223);stroke-width:2.5px;"/>
                        <g transform="matrix(0.7071,-0.7071,0.7071,0.7071,-33.3954,140.744)">
                            <rect x="127.33" y="67.287" width="51.732" height="86.793" style="fill:none;stroke:rgb(38,167,223);stroke-width:2.5px;stroke-linecap:round;stroke-linejoin:round;"/>
                        </g>
                        <g transform="matrix(0.7071,0.7071,-0.7071,0.7071,166.548,-57.8764)">
                            <rect x="127.269" y="128.699" width="51.731" height="86.792" style="fill:none;stroke:rgb(38,167,223);stroke-width:2.5px;stroke-linecap:round;stroke-linejoin:round;"/>
                        </g>
                        <g transform="matrix(1,0,0,1,0.411229,0)">
                            <path d="M96.32,202.198L96.32,79.799" style="fill:none;fill-rule:nonzero;stroke:rgb(38,167,223);stroke-width:2.5px;"/>
                        </g>
                        <circle cx="183.807" cy="141.338" r="25.866" style="fill:none;stroke:rgb(38,167,223);stroke-width:2.5px;"/>
                    </g>
                </g>
            </g>
        </g>
        <g transform="matrix(1.16207,0,0,1.15305,458.831,-82.7096)">
            <path d="M212.603,1035.57C211.781,1039.4 209.543,1041.31 205.889,1041.31L168.894,1041.31C165.879,1041.31 164.372,1040.02 164.372,1037.44C164.372,1037.15 164.463,1036.53 164.646,1035.57L203.286,845.42C204.108,841.594 206.3,839.68 209.863,839.68L246.721,839.68C248.183,839.68 249.37,839.967 250.284,840.541C251.197,841.115 251.974,842.072 252.613,843.411L301.255,953.627L323.316,845.42C324.138,841.594 326.33,839.68 329.893,839.68L366.888,839.68C369.994,839.68 371.547,841.019 371.547,843.698C371.547,844.081 371.455,844.655 371.273,845.42L332.633,1035.57C331.811,1039.4 329.573,1041.31 325.919,1041.31L293.719,1041.31C290.979,1041.31 289.061,1040.07 287.964,1037.58L235.897,921.05L212.603,1035.57Z" style="fill:rgb(0,138,193);fill-rule:nonzero;"/>
            <path d="M512.952,1035.57C512.13,1039.4 509.892,1041.31 506.238,1041.31L375.246,1041.31C372.232,1041.31 370.725,1040.02 370.725,1037.44C370.725,1037.15 370.816,1036.53 370.999,1035.57L409.638,845.42C410.004,843.603 410.735,842.191 411.831,841.187C412.927,840.182 414.388,839.68 416.215,839.68L545.152,839.68C548.166,839.68 549.673,841.067 549.673,843.842C549.673,844.512 549.628,845.038 549.536,845.42L542.274,880.58C541.909,882.398 541.178,883.809 540.082,884.814C538.986,885.819 537.524,886.321 535.697,886.321L450.608,886.321L444.168,917.75L509.526,917.75C512.541,917.75 514.048,919.137 514.048,921.911C514.048,922.581 514.002,923.107 513.911,923.49L507.334,955.78C506.969,957.598 506.238,959.009 505.142,960.013C504.045,961.018 502.584,961.52 500.757,961.52L435.398,961.52L428.547,994.671L515.692,994.671C518.798,994.671 520.351,996.011 520.351,998.689C520.351,999.072 520.26,999.646 520.077,1000.41L512.952,1035.57Z" style="fill:rgb(0,138,193);fill-rule:nonzero;"/>
            <path d="M583.928,1037.29C582.01,1039.97 579.544,1041.31 576.529,1041.31L530.764,1041.31C528.115,1041.31 526.791,1040.4 526.791,1038.59C526.791,1037.44 527.43,1036.05 528.709,1034.42L607.085,938.559L570.5,846.569C570.226,845.707 570.089,844.894 570.089,844.129C570.089,842.789 570.569,841.713 571.528,840.9C572.487,840.087 573.835,839.68 575.57,839.68L621.883,839.68C624.806,839.68 626.679,841.019 627.501,843.698L645.451,899.811L685.46,843.698C687.287,841.019 689.708,839.68 692.723,839.68L739.446,839.68C740.817,839.68 741.844,839.943 742.529,840.469C743.215,840.996 743.557,841.689 743.557,842.55C743.557,843.698 742.963,845.038 741.776,846.569L669.84,938.559L707.658,1034.42C707.932,1035.29 708.069,1036.05 708.069,1036.72C708.069,1038.06 707.566,1039.16 706.562,1040.02C705.557,1040.88 704.187,1041.31 702.451,1041.31L656.412,1041.31C654.859,1041.31 653.626,1041 652.713,1040.38C651.799,1039.76 651.114,1038.73 650.657,1037.29L629.83,975.871L583.928,1037.29Z" style="fill:rgb(0,138,193);fill-rule:nonzero;"/>
            <path d="M818.233,1035.57C817.411,1039.4 815.173,1041.31 811.519,1041.31L773.153,1041.31C770.139,1041.31 768.632,1040.02 768.632,1037.44C768.632,1037.15 768.723,1036.53 768.906,1035.57L798.913,887.756L752.737,887.756C749.723,887.756 748.216,886.369 748.216,883.594C748.216,882.924 748.261,882.398 748.353,882.016L755.889,845.42C756.254,843.603 756.985,842.191 758.081,841.187C759.177,840.182 760.639,839.68 762.466,839.68L904.282,839.68C907.296,839.68 908.804,841.067 908.804,843.842C908.804,844.512 908.758,845.038 908.667,845.42L901.131,882.016C900.765,883.833 900.034,885.245 898.938,886.249C897.842,887.254 896.38,887.756 894.554,887.756L848.241,887.756L818.233,1035.57Z" style="fill:rgb(0,138,193);fill-rule:nonzero;"/>
        </g>
    </g>
</svg>
