<?xml version="1.0" encoding="UTF-8" standalone="no"?><!DOCTYPE svg PUBLIC "-//W3C//DTD SVG 1.1//EN" "http://www.w3.org/Graphics/SVG/1.1/DTD/svg11.dtd"><svg width="100%" height="100%" viewBox="0 0 1402 566" version="1.1" xmlns="http://www.w3.org/2000/svg" xmlns:xlink="http://www.w3.org/1999/xlink" xml:space="preserve" xmlns:serif="http://www.serif.com/" style="fill-rule:evenodd;clip-rule:evenodd;stroke-miterlimit:10;"><g><g><path d="M511.596,427.367c-1.051,4.853 -3.911,7.279 -8.581,7.279l-47.281,0c-3.852,0 -5.779,-1.637 -5.779,-4.913c0,-0.364 0.117,-1.153 0.351,-2.366l49.382,-241.132c1.051,-4.853 3.853,-7.28 8.406,-7.28l47.106,0c1.868,0 3.385,0.364 4.553,1.092c1.167,0.728 2.159,1.941 2.977,3.64l62.166,139.766l28.193,-137.218c1.051,-4.853 3.853,-7.28 8.406,-7.28l47.281,0c3.969,0 5.954,1.699 5.954,5.096c-0,0.485 -0.117,1.213 -0.351,2.184l-49.382,241.132c-1.051,4.853 -3.911,7.279 -8.581,7.279l-41.152,0c-3.502,0 -5.954,-1.577 -7.355,-4.731l-66.543,-147.773l-29.77,145.225Z" style="fill:#29a6df;fill-rule:nonzero;"/><path d="M895.449,427.367c-1.051,4.853 -3.911,7.279 -8.581,7.279l-167.41,0c-3.853,0 -5.779,-1.637 -5.779,-4.913c-0,-0.364 0.117,-1.153 0.35,-2.366l49.383,-241.132c0.467,-2.306 1.401,-4.095 2.802,-5.369c1.4,-1.274 3.268,-1.911 5.603,-1.911l164.784,0c3.852,0 5.779,1.759 5.779,5.278c-0,0.849 -0.059,1.516 -0.176,2.002l-9.281,44.586c-0.467,2.305 -1.401,4.095 -2.802,5.369c-1.4,1.274 -3.268,1.911 -5.603,1.911l-108.747,-0l-8.23,39.855l83.53,-0c3.852,-0 5.779,1.759 5.779,5.277c-0,0.85 -0.059,1.517 -0.176,2.002l-8.405,40.947c-0.467,2.306 -1.401,4.095 -2.802,5.369c-1.401,1.274 -3.269,1.911 -5.604,1.911l-83.53,-0l-8.755,42.039l111.373,-0c3.969,-0 5.954,1.698 5.954,5.095c-0,0.486 -0.117,1.214 -0.35,2.184l-9.106,44.587Z" style="fill:#29a6df;fill-rule:nonzero;"/><path d="M986.158,429.551c-2.451,3.397 -5.603,5.095 -9.456,5.095l-58.488,0c-3.386,0 -5.079,-1.152 -5.079,-3.457c0,-1.456 0.817,-3.215 2.452,-5.278l100.166,-121.567l-46.756,-116.654c-0.35,-1.092 -0.525,-2.123 -0.525,-3.093c-0,-1.699 0.613,-3.064 1.838,-4.095c1.226,-1.031 2.948,-1.547 5.166,-1.547l59.189,0c3.736,0 6.129,1.699 7.18,5.096l22.94,71.156l51.134,-71.156c2.335,-3.397 5.428,-5.096 9.281,-5.096l59.714,0c1.751,0 3.065,0.334 3.94,1.001c0.876,0.667 1.314,1.547 1.314,2.639c-0,1.456 -0.759,3.154 -2.277,5.095l-91.935,116.654l48.331,121.567c0.351,1.092 0.526,2.063 0.526,2.912c-0,1.698 -0.642,3.094 -1.926,4.186c-1.285,1.092 -3.036,1.637 -5.254,1.637l-58.839,0c-1.984,0 -3.56,-0.394 -4.728,-1.182c-1.167,-0.789 -2.043,-2.093 -2.627,-3.913l-26.617,-77.891l-58.664,77.891Z" style="fill:#29a6df;fill-rule:nonzero;"/><path d="M1285.61,427.367c-1.05,4.853 -3.91,7.279 -8.58,7.279l-49.032,0c-3.853,0 -5.779,-1.637 -5.779,-4.913c-0,-0.364 0.116,-1.153 0.35,-2.366l38.35,-187.446l-59.014,-0c-3.852,-0 -5.778,-1.76 -5.778,-5.278c-0,-0.849 0.058,-1.517 0.175,-2.002l9.631,-46.406c0.467,-2.306 1.401,-4.095 2.802,-5.369c1.401,-1.274 3.269,-1.911 5.604,-1.911l181.244,0c3.852,0 5.779,1.759 5.779,5.278c-0,0.849 -0.059,1.516 -0.175,2.002l-9.632,46.406c-0.467,2.305 -1.401,4.095 -2.802,5.369c-1.401,1.274 -3.268,1.911 -5.603,1.911l-59.189,-0l-38.351,187.446Z" style="fill:#29a6df;fill-rule:nonzero;"/></g><g id="logo.svg"><g><path d="M448.947,450.187c-10.756,17.23 -29.89,28.718 -51.653,28.718c-33.546,-0 -60.84,-27.294 -60.84,-60.84c-0,-33.546 27.292,-60.84 60.84,-60.84c14.679,-0 28.161,5.225 38.683,13.914c-5.061,24.851 -9.272,45.593 -11.616,57.213c-0.385,1.911 -0.442,4.23 -0.406,5.833c0.028,1.28 0.239,2.567 0.618,3.79c0.427,1.374 1.256,3.251 1.941,4.453c0.579,1.016 1.358,1.938 2.169,2.76c0.811,0.822 1.791,1.584 2.7,2.173c0.861,0.557 1.765,1.109 2.76,1.363c1.776,0.454 5.227,1.295 7.898,1.362c1.707,0.042 4.093,0.076 6.906,0.101Zm-10.818,-89.608c-15.576,-0.297 -28.156,-13.061 -28.158,-28.704c-0,-15.833 12.88,-28.718 28.713,-28.718c3.795,0 7.421,0.741 10.741,2.085c-3.88,18.973 -7.748,37.926 -11.296,55.337Zm21.987,-107.53c-5.263,5.902 -12.921,9.624 -21.432,9.624c-15.833,-0 -28.713,-12.881 -28.713,-28.713c-0,-15.833 12.88,-28.714 28.713,-28.714c12.649,0 23.413,8.221 27.231,19.6c-1.808,8.774 -3.759,18.265 -5.799,28.203Zm7.99,-38.827c-0.372,-1.069 -0.575,-2.218 -0.575,-3.413c0,-2.702 1.037,-5.167 2.733,-7.017c-0.682,3.292 -1.403,6.777 -2.158,10.43Zm8.631,-38.403c-1.658,1.118 -3.655,1.772 -5.803,1.772c-5.734,-0 -10.401,-4.667 -10.401,-10.402c-0,-5.735 4.667,-10.397 10.401,-10.397c5.739,-0 10.406,4.662 10.406,10.397c-0,0.632 -0.057,1.251 -0.165,1.852c-0.995,1.008 -2.136,2.265 -2.838,3.531c-0.508,0.914 -1.072,2.035 -1.6,3.247Zm-359.675,178.106c-39.34,0 -71.345,-32.007 -71.343,-71.351c-0,-39.341 32.003,-71.344 71.343,-71.344c39.34,0 71.343,32.003 71.343,71.344c0,39.344 -32.003,71.351 -71.343,71.351Zm-4.988,-163.993c-15.831,0 -28.708,-12.88 -28.71,-28.713c0,-15.829 12.877,-28.709 28.71,-28.709c15.833,-0 28.713,12.88 28.713,28.709c0,15.833 -12.88,28.713 -28.713,28.713Zm45.716,-45.444c-15.833,-0 -28.714,-12.881 -28.714,-28.713c0,-15.829 12.881,-28.71 28.714,-28.71c15.832,0 28.709,12.881 28.709,28.71c0,15.832 -12.877,28.713 -28.709,28.713Zm95.46,-97.757c15.832,-0 28.713,12.88 28.713,28.709c-0,15.833 -12.881,28.713 -28.713,28.713c-15.833,0 -28.71,-12.88 -28.71,-28.713c0,-15.829 12.877,-28.709 28.71,-28.709Zm57.546,85.389c-15.829,0 -28.709,-12.88 -28.709,-28.713c-0,-15.833 12.88,-28.713 28.709,-28.713c15.833,-0 28.717,12.88 28.717,28.713c0,15.833 -12.884,28.713 -28.717,28.713Zm25.658,14.963c-0,-33.546 27.294,-60.84 60.84,-60.84c33.545,-0 60.844,27.292 60.844,60.84c-0,33.55 -27.299,60.844 -60.844,60.844c-33.546,-0 -60.84,-27.292 -60.84,-60.844Zm-173.219,30.262c-0,5.735 -4.667,10.398 -10.402,10.398c-5.738,-0 -10.401,-4.663 -10.401,-10.398c-0,-5.735 4.663,-10.401 10.401,-10.401c5.735,-0 10.402,4.666 10.402,10.401Zm7.553,-9.128c-5.735,0 -10.401,-4.667 -10.401,-10.401c-0,-5.735 4.666,-10.402 10.401,-10.402c5.735,0 10.402,4.667 10.402,10.402c-0,5.734 -4.667,10.401 -10.402,10.401Zm33.68,-63.281c-5.739,-0 -10.402,-4.667 -10.402,-10.402c0,-5.734 4.663,-10.401 10.402,-10.401c5.734,-0 10.397,4.667 10.397,10.401c0,5.735 -4.663,10.402 -10.397,10.402Zm-20.173,-15.777c-5.734,-0 -10.401,-4.663 -10.401,-10.402c-0,-5.734 4.667,-10.397 10.401,-10.397c5.735,-0 10.402,4.663 10.402,10.397c-0,5.739 -4.667,10.402 -10.402,10.402Zm24.608,-31.017c5.735,0 10.401,4.663 10.401,10.398c0,5.738 -4.666,10.401 -10.401,10.401c-5.735,0 -10.402,-4.663 -10.402,-10.401c0,-5.735 4.667,-10.398 10.402,-10.398Zm84.571,7.891c-5.734,-0 -10.401,-4.663 -10.401,-10.402c-0,-5.735 4.667,-10.397 10.401,-10.397c5.735,-0 10.402,4.662 10.402,10.397c-0,5.739 -4.667,10.402 -10.402,10.402Zm25.548,2.748c-5.739,0 -10.406,-4.663 -10.406,-10.397c0,-5.739 4.667,-10.402 10.406,-10.402c5.735,0 10.401,4.663 10.401,10.402c0,5.734 -4.666,10.397 -10.401,10.397Zm25.412,6.188c-5.739,-0 -10.406,-4.667 -10.406,-10.402c0,-5.734 4.667,-10.401 10.406,-10.401c5.734,-0 10.401,4.667 10.401,10.401c0,5.735 -4.667,10.402 -10.401,10.402Zm24.735,8.737c-5.735,-0 -10.401,-4.663 -10.401,-10.398c-0,-5.734 4.666,-10.401 10.401,-10.401c5.735,-0 10.402,4.667 10.402,10.401c-0,5.735 -4.667,10.398 -10.402,10.398Zm79.952,107.56c0,-5.735 4.667,-10.402 10.402,-10.402c5.735,0 10.401,4.667 10.401,10.402c0,5.734 -4.666,10.401 -10.401,10.401c-5.735,0 -10.402,-4.667 -10.402,-10.401Zm-24.615,91.308c-0,-5.735 4.667,-10.398 10.401,-10.398c5.735,0 10.402,4.663 10.402,10.398c-0,5.734 -4.667,10.401 -10.402,10.401c-5.734,0 -10.401,-4.667 -10.401,-10.401Zm-262.527,-70.272c-5.738,0 -10.401,-4.663 -10.401,-10.397c-0,-5.735 4.663,-10.402 10.401,-10.402c5.735,0 10.398,4.667 10.398,10.402c-0,5.734 -4.663,10.397 -10.398,10.397Zm16.851,19.723c-5.734,0 -10.397,-4.666 -10.397,-10.401c-0,-5.735 4.663,-10.402 10.397,-10.402c5.735,0 10.402,4.667 10.402,10.402c-0,5.735 -4.667,10.401 -10.402,10.401Zm0,-60.061c5.735,-0 10.402,4.663 10.402,10.397c-0,5.735 -4.667,10.402 -10.402,10.402c-5.734,-0 -10.397,-4.667 -10.397,-10.402c-0,-5.734 4.663,-10.397 10.397,-10.397Zm-42.396,16.042c5.735,0 10.401,4.667 10.401,10.402c0,5.734 -4.666,10.401 -10.401,10.401c-5.735,0 -10.402,-4.667 -10.402,-10.401c0,-5.735 4.667,-10.402 10.402,-10.402Zm-70.861,35.111c-5.734,-0 -10.401,-4.663 -10.401,-10.398c-0,-5.734 4.667,-10.401 10.401,-10.401c5.735,-0 10.402,4.667 10.402,10.401c-0,5.735 -4.667,10.398 -10.402,10.398Zm10.624,-23.36c-5.739,-0 -10.402,-4.667 -10.402,-10.402c0,-5.734 4.663,-10.401 10.402,-10.401c5.734,-0 10.397,4.667 10.397,10.401c0,5.735 -4.663,10.402 -10.397,10.402Zm64.59,204.854c0,15.833 -12.88,28.718 -28.713,28.718c-15.833,-0 -28.71,-12.885 -28.71,-28.718c0,-15.833 12.877,-28.717 28.71,-28.717c15.833,-0 28.713,12.884 28.713,28.717Zm45.712,45.447c0,15.83 -12.877,28.717 -28.709,28.717c-15.833,-0 -28.714,-12.885 -28.714,-28.717c0,-15.833 12.881,-28.718 28.714,-28.718c15.832,0 28.709,12.885 28.709,28.718Zm66.755,11.621c15.832,-0 28.709,12.884 28.709,28.717c-0,15.829 -12.877,28.713 -28.709,28.713c-15.833,0 -28.714,-12.884 -28.714,-28.713c0,-15.833 12.881,-28.717 28.714,-28.717Zm57.542,-27.965c15.833,-0 28.717,12.88 28.717,28.709c0,15.837 -12.884,28.718 -28.717,28.718c-15.829,-0 -28.709,-12.881 -28.709,-28.718c-0,-15.829 12.88,-28.709 28.709,-28.709Zm-157.959,-34.822c-5.738,0 -10.401,-4.666 -10.401,-10.401c-0,-5.735 4.663,-10.406 10.401,-10.406c5.735,0 10.398,4.671 10.398,10.406c-0,5.735 -4.663,10.401 -10.398,10.401Zm17.951,19.524c-5.735,-0 -10.401,-4.667 -10.401,-10.398c-0,-5.734 4.666,-10.405 10.401,-10.405c5.735,-0 10.402,4.671 10.402,10.405c-0,5.731 -4.667,10.398 -10.402,10.398Zm44.077,52.884c0,5.734 -4.663,10.401 -10.397,10.401c-5.739,0 -10.402,-4.667 -10.402,-10.401c0,-5.735 4.663,-10.406 10.402,-10.406c5.734,0 10.397,4.671 10.397,10.406Zm-30.57,5.373c5.735,0 10.402,4.667 10.402,10.402c-0,5.734 -4.667,10.405 -10.402,10.405c-5.734,0 -10.401,-4.671 -10.401,-10.405c-0,-5.735 4.667,-10.402 10.401,-10.402Zm24.608,10.214c5.735,-0 10.401,4.671 10.401,10.409c0,5.735 -4.666,10.402 -10.401,10.402c-5.735,-0 -10.402,-4.667 -10.402,-10.402c0,-5.738 4.667,-10.409 10.402,-10.409Zm84.571,12.909c5.735,-0 10.402,4.668 10.402,10.409c-0,5.735 -4.667,10.402 -10.402,10.402c-5.734,-0 -10.401,-4.667 -10.401,-10.402c-0,-5.739 4.667,-10.409 10.401,-10.409Zm25.548,-2.745c5.735,-0 10.401,4.669 10.401,10.405c0,5.731 -4.666,10.398 -10.401,10.398c-5.739,-0 -10.406,-4.667 -10.406,-10.398c0,-5.734 4.667,-10.405 10.406,-10.405Zm25.412,-6.184c5.734,0 10.401,4.663 10.401,10.402c0,5.734 -4.667,10.401 -10.401,10.401c-5.739,0 -10.406,-4.667 -10.406,-10.401c0,-5.739 4.667,-10.402 10.406,-10.402Zm24.735,-8.737c5.735,0 10.406,4.667 10.406,10.398c-0,5.735 -4.671,10.405 -10.406,10.405c-5.735,0 -10.401,-4.67 -10.401,-10.405c-0,-5.731 4.666,-10.398 10.401,-10.398Zm-207.19,-107.799c-5.738,-0 -10.401,-4.667 -10.401,-10.402c-0,-5.734 4.663,-10.401 10.401,-10.401c5.735,-0 10.398,4.667 10.398,10.401c-0,5.735 -4.663,10.402 -10.398,10.402Zm16.851,-40.526c5.735,-0 10.402,4.671 10.402,10.405c-0,5.735 -4.667,10.398 -10.402,10.398c-5.734,-0 -10.397,-4.663 -10.397,-10.398c-0,-5.734 4.663,-10.405 10.397,-10.405Zm10.402,49.664c-0,5.735 -4.667,10.401 -10.402,10.401c-5.734,0 -10.397,-4.666 -10.397,-10.401c-0,-5.735 4.663,-10.402 10.397,-10.402c5.735,0 10.402,4.667 10.402,10.402Zm-52.798,-26.444c5.735,-0 10.401,4.663 10.401,10.401c0,5.735 -4.666,10.402 -10.401,10.402c-5.735,-0 -10.402,-4.667 -10.402,-10.402c0,-5.738 4.667,-10.401 10.402,-10.401Zm-60.455,-3.91c-0,5.734 -4.667,10.401 -10.402,10.401c-5.738,0 -10.405,-4.667 -10.405,-10.401c-0,-5.739 4.667,-10.402 10.405,-10.402c5.735,0 10.402,4.663 10.402,10.402Zm10.619,23.364c0,5.734 -4.663,10.401 -10.397,10.401c-5.739,0 -10.406,-4.667 -10.406,-10.401c0,-5.735 4.667,-10.402 10.406,-10.402c5.734,0 10.397,4.667 10.397,10.402Z" style="fill:none;stroke:#53b7db;stroke-opacity:0.25;stroke-width:8px;"/><g><path d="M457.603,450.236c-44.117,46.044 -106.226,74.712 -175.029,74.712c-133.866,-0 -242.374,-108.51 -242.374,-242.374c-0,-133.858 108.51,-242.374 242.374,-242.374c90.653,-0 169.683,49.77 211.256,123.476c-2.197,0.26 -4.49,0.769 -5.862,1.089c-1.057,0.247 -2.035,0.776 -2.978,1.312c-0.967,0.549 -2.001,1.182 -2.823,1.984c-1.109,1.083 -2.874,2.789 -3.83,4.511c-1.189,2.14 -2.683,5.409 -3.3,8.329c-8.996,42.63 -42.162,205.237 -50.676,247.451c-0.385,1.911 -0.442,4.23 -0.406,5.833c0.028,1.28 0.239,2.567 0.618,3.79c0.427,1.374 1.256,3.251 1.941,4.453c0.579,1.016 1.358,1.938 2.169,2.76c0.811,0.822 1.791,1.584 2.7,2.173c0.861,0.557 1.765,1.109 2.76,1.363c1.776,0.454 5.227,1.295 7.898,1.362c3.278,0.081 9.065,0.13 15.562,0.15Z" style="fill:none;stroke:#26a7df;stroke-width:8px;"/><circle cx="245.609" cy="160.417" r="51.628" style="fill:none;stroke:#26a7df;stroke-width:8px;"/><circle cx="245.609" cy="404.737" r="51.628" style="fill:none;stroke:#26a7df;stroke-width:8px;"/><path d="M297.237,160.417l-0,244.32" style="fill:none;fill-rule:nonzero;stroke:#26a7df;stroke-width:8px;"/><g><path d="M281.919,123.627l122.501,122.501l-73.015,73.015l-122.501,-122.501l73.015,-73.015Z" style="fill:none;stroke:#26a7df;stroke-width:8px;stroke-linecap:round;stroke-linejoin:round;"/></g><g><path d="M404.313,319.221l-122.499,122.499l-73.014,-73.014l122.499,-122.499l73.014,73.014Z" style="fill:none;stroke:#26a7df;stroke-width:8px;stroke-linecap:round;stroke-linejoin:round;"/></g><path d="M193.959,404.054l-0,-244.316" style="fill:none;fill-rule:nonzero;stroke:#26a7df;stroke-width:8px;"/><circle cx="367.768" cy="282.574" r="51.63" style="fill:none;stroke:#26a7df;stroke-width:8px;"/></g></g></g></g></svg>