<?xml version="1.0" encoding="utf-8"?>
<!-- Generator: Adobe Illustrator 15.1.0, SVG Export Plug-In . SVG Version: 6.00 Build 0)  -->
<!DOCTYPE svg PUBLIC "-//W3C//DTD SVG 1.1//EN" "http://www.w3.org/Graphics/SVG/1.1/DTD/svg11.dtd">
<svg version="1.1" id="Layer_1" xmlns="http://www.w3.org/2000/svg" xmlns:xlink="http://www.w3.org/1999/xlink" x="0px" y="0px"
	 width="48px" height="48px" viewBox="0 0 48 48" enable-background="new 0 0 48 48" xml:space="preserve">
<path fill="#24C7ED" d="M39.757,33.907c-0.59,1.363-1.289,2.619-2.1,3.772c-1.103,1.574-2.008,2.662-2.703,3.271
	c-1.082,0.989-2.237,1.499-3.478,1.529c-0.89,0-1.962-0.255-3.209-0.769c-1.253-0.51-2.405-0.761-3.457-0.761
	c-1.105,0-2.289,0.251-3.556,0.761c-1.266,0.514-2.289,0.78-3.069,0.81c-1.189,0.051-2.374-0.475-3.556-1.57
	c-0.754-0.658-1.697-1.787-2.829-3.387c-1.212-1.707-2.21-3.685-2.991-5.941c-0.836-2.438-1.255-4.794-1.255-7.083
	c0-2.615,0.567-4.871,1.698-6.763c0.892-1.518,2.076-2.718,3.556-3.597c1.483-0.879,3.084-1.328,4.808-1.357
	c0.946,0,2.184,0.292,3.721,0.867c1.535,0.574,2.519,0.867,2.948,0.867c0.326,0,1.417-0.341,3.273-1.022
	c1.754-0.63,3.232-0.892,4.445-0.789c3.285,0.265,5.753,1.561,7.395,3.894c-2.938,1.78-4.391,4.273-4.363,7.472
	c0.028,2.492,0.931,4.566,2.706,6.211c0.807,0.763,1.706,1.354,2.705,1.774C40.229,32.724,40,33.328,39.757,33.907L39.757,33.907z
	 M32.221,4.257c0,1.953-0.712,3.777-2.135,5.464c-1.716,2.006-3.791,3.165-6.043,2.982C24.016,12.47,24,12.223,24,11.964
	c0-1.876,0.813-3.882,2.265-5.521c0.725-0.831,1.644-1.522,2.76-2.073c1.112-0.542,2.165-0.843,3.156-0.894
	C32.211,3.736,32.221,3.999,32.221,4.257L32.221,4.257z"/>
</svg>
