<?xml version="1.0" encoding="utf-8"?>
<!-- Generator: Adobe Illustrator 15.1.0, SVG Export Plug-In . SVG Version: 6.00 Build 0)  -->
<!DOCTYPE svg PUBLIC "-//W3C//DTD SVG 1.1//EN" "http://www.w3.org/Graphics/SVG/1.1/DTD/svg11.dtd">
<svg version="1.1" id="Layer_1" xmlns="http://www.w3.org/2000/svg" xmlns:xlink="http://www.w3.org/1999/xlink" x="0px" y="0px"
	 width="48px" height="48px" viewBox="0 0 48 48" enable-background="new 0 0 48 48" xml:space="preserve">
<g>
	<g>
		<path fill="#24C7ED" d="M40.164,35.629c-1.057-0.435-1.928-1.118-1.865-2.427c0.062-1.307-0.934-2.173-0.934-2.173
			s0.871-2.859,0.062-5.224c-0.809-2.364-3.481-6.155-5.533-9.014c-2.049-2.861-0.309-6.158-2.173-10.384
			c-1.866-4.225-6.714-3.978-9.326-2.174c-2.613,1.801-1.806,6.275-1.682,8.394c0.125,2.111,0.056,3.616-0.185,4.163
			c-0.245,0.546-1.926,2.552-3.047,4.229c-1.119,1.677-1.927,5.16-2.738,6.589c-0.808,1.431-0.248,2.735-0.248,2.735
			s-0.56,0.184-0.996,1.121c-0.436,0.93-1.305,1.365-2.859,1.673c-1.554,0.312-1.554,1.311-1.182,2.43
			c0.374,1.115,0.001,1.741-0.434,3.169c-0.436,1.425,1.74,1.865,3.853,2.109c2.115,0.25,4.477,1.618,6.469,1.866
			c1.987,0.25,2.61-1.367,2.61-1.367s2.238-0.499,4.598-0.559c2.365-0.062,4.598,0.497,4.598,0.497s0.437,0.994,1.244,1.429
			c0.81,0.436,2.551,0.498,3.669-0.681c1.121-1.183,4.105-2.672,5.781-3.606C41.529,37.488,41.222,36.061,40.164,35.629z
			 M25.615,8.212c1.065,0,1.927,1.057,1.927,2.36c0,0.925-0.434,1.724-1.062,2.111c-0.162-0.07-0.33-0.142-0.51-0.218
			c0.378-0.188,0.649-0.672,0.649-1.235c0-0.734-0.455-1.33-1.017-1.33c-0.555,0-1.012,0.597-1.012,1.33
			c0,0.271,0.065,0.533,0.177,0.746c-0.332-0.131-0.637-0.254-0.876-0.344c-0.13-0.318-0.203-0.677-0.203-1.059
			C23.688,9.269,24.548,8.212,25.615,8.212z M25.477,13.188c0.532,0.185,1.126,0.532,1.064,0.875
			c-0.064,0.346-0.344,0.346-1.064,0.786c-0.723,0.438-2.288,1.407-2.788,1.471c-0.504,0.063-0.784-0.219-1.317-0.562
			c-0.532-0.344-1.535-1.163-1.282-1.599c0,0,0.781-0.598,1.124-0.91c0.345-0.314,1.223-1.064,1.755-0.966
			C23.501,12.372,24.943,13,25.477,13.188z M20.671,8.585c0.841,0,1.523,1.001,1.523,2.236c0,0.227-0.022,0.438-0.065,0.641
			c-0.205,0.07-0.413,0.183-0.615,0.354c-0.102,0.083-0.193,0.162-0.28,0.241c0.133-0.25,0.187-0.605,0.126-0.979
			c-0.113-0.674-0.562-1.167-1.008-1.097c-0.444,0.077-0.712,0.684-0.599,1.362c0.114,0.678,0.562,1.17,1.005,1.097
			c0.025-0.006,0.05-0.012,0.076-0.021c-0.217,0.208-0.417,0.388-0.62,0.54c-0.615-0.285-1.066-1.134-1.066-2.138
			C19.149,9.585,19.831,8.585,20.671,8.585z M19.03,39.998c-0.198,0.893-1.242,1.541-1.242,1.541
			c-0.946,0.297-3.577-0.845-4.769-1.345c-1.19-0.493-4.223-0.648-4.621-1.089c-0.394-0.451,0.198-1.442,0.35-2.384
			c0.147-0.949-0.297-1.541-0.15-2.188c0.15-0.645,2.087-0.645,2.831-1.09c0.746-0.449,0.895-1.74,1.49-2.087
			c0.596-0.351,1.688,0.892,2.136,1.59c0.446,0.692,2.135,3.674,2.83,4.419C18.583,38.111,19.228,39.108,19.03,39.998z
			 M30.025,31.336c-0.181,0.876-0.181,4.043-0.181,4.043s-1.925,2.67-4.914,3.107c-2.983,0.437-4.477,0.122-4.477,0.122
			l-1.677-1.926c0,0,1.303-0.188,1.118-1.494c-0.188-1.305-3.978-3.108-4.663-4.726c-0.682-1.614-0.123-4.353,0.748-5.721
			c0.87-1.366,1.427-4.348,2.298-5.346c0.871-0.991,1.552-3.105,1.242-4.04c0,0,1.866,2.239,3.168,1.868
			c1.305-0.374,4.231-2.552,4.663-2.176c0.435,0.374,4.165,8.577,4.534,11.19c0.376,2.609-0.249,4.598-0.249,4.598
			S30.209,30.464,30.025,31.336z M39.566,37.192c-0.581,0.533-3.812,1.838-4.781,2.856c-0.964,1.009-2.223,1.831-2.992,1.592
			c-0.776-0.244-1.45-1.305-1.112-2.853c0.336-1.543,0.629-3.233,0.58-4.2c-0.047-0.967-0.244-2.273,0-2.467
			c0.241-0.188,0.625-0.094,0.625-0.094s-0.188,1.833,0.919,2.32c1.109,0.478,2.705-0.193,3.188-0.681
			c0.484-0.479,0.822-1.204,0.822-1.204s0.482,0.244,0.435,1.015c-0.048,0.772,0.336,1.886,1.064,2.271
			C39.036,36.128,40.147,36.664,39.566,37.192z"/>
	</g>
</g>
</svg>
